<?xml version="1.0" encoding="utf-8"?>
<!DOCTYPE svg PUBLIC "-//W3C//DTD SVG 1.0//EN" "http://www.w3.org/TR/2001/REC-SVG-20010904/DTD/svg10.dtd">
<svg aria-labelledby="title desc" fill-rule="evenodd" height="3.793729372937294in" preserveAspectRatio="none" stroke-linecap="round" viewBox="0 0 1477 2299" width="2.437293729372937in" xmlns="http://www.w3.org/2000/svg" xmlns:xlink="http://www.w3.org/1999/xlink"><title>buried in paperwork,businessmen,men,occupations,overworked,paperwork,people,persons,stress</title><desc>Original keywords: buried in paperwork,businessmen,men,occupations,overworked,paperwork,people,persons,stress. This clipart was ripped from the Microsoft website, then uploaded to https://archive.org/details/MS_Clipart_Collection. (The original WMF file can be found within that item, under the folder MC900230545). From there, it was then converted by Trumad to svg using https://github.com/hidekatsu-izuno/wmf2svg in a bulk operation. All the converted files can be found at https://archive.org/details/MS_Clipart_Collection_SVG</desc>
<style type="text/css">
.brush0 { fill: rgb(255,255,255); }
.pen0 { stroke: rgb(0,0,0); stroke-width: 1; stroke-linejoin: round; }
.pen1 { stroke: none; }
.brush1 { fill: rgb(255,217,229); }
.brush2 { fill: rgb(255,229,217); }
.brush3 { fill: rgb(179,217,179); }
.brush4 { fill: rgb(186,237,237); }
.brush5 { fill: rgb(140,191,191); }
.brush6 { fill: rgb(255,242,204); }
.brush7 { fill: rgb(216,242,191); }
.brush8 { fill: rgb(242,229,242); }
.brush9 { fill: rgb(229,203,229); }
.brush10 { fill: rgb(204,166,153); }
.brush11 { fill: rgb(255,250,229); }
.brush12 { fill: rgb(255,77,77); }
.brush13 { fill: rgb(242,216,204); }
.brush14 { fill: rgb(0,0,0); }
</style>
<g>
<polygon class="pen1 brush1" points="251,461 0,1748 915,2133 1457,1509 251,461 251,461"/>
<polygon class="pen1 brush2" points="549,528 802,536 938,498 1191,646 1119,661 1187,702 1044,816 1218,861 1135,922 1263,986 1093,1130 927,1315 719,1436 250,1236 341,1160 292,1115 428,929 329,876 371,835 322,805 360,778 322,748 363,714 326,676 488,589 549,528 549,528"/>
<polygon class="pen1 brush3" points="424,710 666,759 957,759 1040,668 688,710 424,710 424,710"/>
<polygon class="pen1 brush4" points="450,903 813,960 946,1032 983,1054 1172,842 1029,808 972,869 794,880 450,903 450,903"/>
<polygon class="pen1 brush3" points="326,1141 723,1293 772,1202 692,1118 507,1164 473,1111 356,1107 326,1141 326,1141"/>
<polygon class="pen1 brush5" points="1218,67 1176,154 1127,191 1048,248 1093,297 1210,286 1331,237 1391,180 1433,116 1444,67 1433,29 1388,17 1346,17 1293,21 1248,40 1218,67 1218,67"/>
<polygon class="pen1 brush2" points="1089,248 1040,229 938,275 968,358 1055,365 1108,290 1089,248 1089,248"/>
<polygon class="pen1 brush6" points="685,241 443,437 719,468 1085,422 1048,324 972,335 968,282 1040,241 1025,195 685,241 685,241"/>
<polygon class="pen1 brush7" points="836,1251 798,1308 995,1436 1278,1202 1112,1096 1066,1179 979,1187 919,1274 836,1251 836,1251"/>
<polygon class="pen1 brush8" points="333,1247 190,1349 318,1459 397,1285 333,1247 333,1247"/>
<polygon class="pen1 brush1" points="87,1921 284,2046 288,2084 197,2057 42,1974 87,1921 87,1921"/>
<polygon class="pen1 brush9" points="1342,1330 1271,1539 1289,1618 1331,1561 1395,1353 1342,1330 1342,1330"/>
<polygon class="pen1 brush10" points="356,1270 284,1406 273,1486 333,1546 934,1380 858,1319 806,1304 730,1418 507,1312 356,1270 356,1270"/>
<polygon class="pen1 brush5" points="352,1694 310,1830 318,1962 382,1978 462,1887 541,1978 590,2137 552,2148 575,2163 696,2167 741,2042 813,1947 881,1898 972,1860 1085,1841 1221,1856 1289,1879 1323,1875 1391,1754 1369,1717 1335,1770 1263,1694 1206,1652 1176,1633 1150,1467 1202,1459 1218,1399 1093,1327 972,1436 352,1694 352,1694"/>
<polygon class="pen1 brush11" points="617,1868 613,1913 745,1910 855,1883 942,1834 995,1777 1017,1701 1013,1629 877,1633 617,1868 617,1868"/>
<polygon class="pen1 brush12" points="828,1819 896,1978 961,1970 979,1917 843,1785 828,1819 828,1819"/>
<polygon class="pen1 brush2" points="1214,1391 1263,1349 1297,1414 1252,1478 1191,1455 1214,1391 1214,1391"/>
<polygon class="pen1 brush2" points="337,1959 269,1978 295,2031 348,2008 375,2053 401,2015 382,1966 337,1959 337,1959"/>
<polygon class="pen1 brush13" points="518,1334 458,1383 416,1440 371,1486 345,1501 303,1516 318,1648 352,1739 397,1807 465,1853 560,1875 643,1887 688,1902 734,1902 783,1879 802,1834 840,1777 889,1686 915,1599 934,1508 923,1452 908,1410 874,1368 828,1338 790,1327 730,1410 518,1334 518,1334"/>
<polygon class="pen1 brush2" points="564,1402 511,1410 454,1429 416,1467 394,1520 386,1588 401,1648 431,1720 458,1770 499,1796 545,1811 617,1819 673,1811 723,1785 775,1728 806,1675 817,1607 813,1512 783,1448 749,1425 688,1429 639,1387 564,1402 564,1402"/>
<polygon class="pen1 brush14" points="695,237 783,243 884,234 1002,197 1057,193 1049,246 1031,256 1027,219 926,246 836,268 764,270 697,265 695,237 695,237 695,237"/>
<polygon class="pen1 brush14" points="675,259 599,305 463,425 469,450 522,440 647,458 792,474 910,460 1002,441 1079,410 1062,346 1040,346 1049,373 1002,408 873,438 775,445 689,436 546,414 491,423 531,388 629,309 682,270 675,259 675,259 675,259"/>
<polygon class="pen1 brush14" points="1073,252 1046,234 1014,250 1003,270 957,289 959,300 979,302 1009,287 1029,263 1064,263 1073,252 1073,252 1073,252"/>
<polygon class="pen1 brush14" points="1079,281 1060,309 1051,329 1073,331 1090,292 1079,281 1079,281 1079,281"/>
<polygon class="pen1 brush14" points="978,320 1018,298 1027,316 983,331 978,320 978,320 978,320"/>
<polygon class="pen1 brush14" points="1038,302 1031,329 1051,329 1047,311 1038,302 1038,302 1038,302"/>
<polygon class="pen1 brush14" points="1222,81 1178,140 1123,199 1077,234 1084,250 1113,235 1159,202 1209,145 1222,81 1222,81 1222,81"/>
<polygon class="pen1 brush14" points="1097,276 1174,267 1253,237 1310,211 1367,173 1417,112 1406,149 1382,193 1323,237 1249,268 1147,296 1103,300 1097,276 1097,276 1097,276"/>
<polygon class="pen1 brush14" points="1095,239 1113,254 1108,268 1093,267 1095,239 1095,239 1095,239"/>
<polygon class="pen1 brush14" points="568,548 616,530 682,535 787,545 867,532 935,506 937,535 842,561 757,568 568,548 568,548 568,548"/>
<polygon class="pen1 brush14" points="542,554 498,592 406,646 373,671 351,708 371,701 415,671 483,631 540,596 562,570 542,554 542,554 542,554"/>
<polygon class="pen1 brush14" points="959,511 950,532 994,563 1068,607 1139,640 1130,622 1047,568 959,511 959,511 959,511"/>
<polygon class="pen1 brush14" points="417,693 502,701 678,703 794,688 952,666 1027,642 1110,638 1158,664 1123,671 1035,682 1014,706 724,719 590,727 425,710 417,693 417,693 417,693"/>
<polygon class="pen1 brush14" points="634,743 695,756 865,748 965,748 990,767 985,782 933,774 671,771 621,754 634,743 634,743 634,743"/>
<polygon class="pen1 brush14" points="467,754 573,778 752,789 847,798 926,822 957,846 979,820 1047,774 1099,743 1137,712 1082,708 1082,691 1167,684 1172,710 1042,809 1044,828 974,892 935,859 889,837 807,818 667,804 551,793 461,776 467,754 467,754 467,754"/>
<polygon class="pen1 brush14" points="412,778 470,804 561,820 691,829 748,848 676,846 540,844 454,828 410,804 412,778 412,778 412,778"/>
<polygon class="pen1 brush14" points="377,848 494,875 636,875 777,864 856,864 924,881 906,896 651,907 463,899 373,874 377,848 377,848 377,848"/>
<polygon class="pen1 brush14" points="1068,817 1167,842 1205,851 1193,872 1174,868 1108,919 1053,984 1044,1017 983,1072 915,1045 913,1026 832,984 761,956 596,938 546,934 540,919 660,927 766,940 880,971 978,1028 1033,964 1088,907 1152,855 1064,848 1058,826 1068,817 1068,817 1068,817"/>
<polygon class="pen1 brush14" points="1124,894 1165,993 1154,1010 1095,1004 1033,1006 1040,989 1119,988 1137,982 1110,903 1124,894 1124,894 1124,894"/>
<polygon class="pen1 brush14" points="1167,934 1198,958 1242,964 1251,984 1196,1032 1123,1089 1124,1071 1211,980 1180,967 1158,953 1167,934 1167,934 1167,934"/>
<polygon class="pen1 brush14" points="1079,999 1055,1188 1086,1175 1134,1151 1147,1144 1196,1175 1244,1203 1262,1210 1229,1173 1178,1129 1101,1085 1104,1012 1079,999 1079,999 1079,999"/>
<polygon class="pen1 brush14" points="735,1071 764,1048 913,1010 902,1045 808,1056 735,1071 735,1071 735,1071"/>
<polygon class="pen1 brush14" points="790,960 704,1019 652,1072 572,1000 513,953 445,923 443,945 507,976 584,1043 652,1094 675,1074 682,1089 748,1039 744,1024 832,969 790,960 790,960 790,960"/>
<polygon class="pen1 brush14" points="388,1102 428,1089 513,1081 601,1091 586,1102 463,1107 399,1120 388,1102 388,1102 388,1102"/>
<polygon class="pen1 brush14" points="436,949 359,1032 359,1067 438,1059 553,1056 522,1041 379,1039 417,1010 460,962 436,949 436,949 436,949"/>
<polygon class="pen1 brush14" points="753,1109 823,1105 928,1135 1000,1172 1082,1188 1077,1205 1009,1203 945,1269 921,1252 966,1188 904,1155 807,1126 753,1126 753,1109 753,1109 753,1109"/>
<polygon class="pen1 brush14" points="452,1100 496,1127 537,1181 581,1161 675,1126 718,1146 807,1219 864,1267 908,1287 935,1285 842,1214 768,1149 699,1113 686,1098 623,1107 540,1148 482,1096 452,1100 452,1100 452,1100"/>
<polygon class="pen1 brush14" points="364,1094 322,1113 322,1135 392,1184 480,1219 617,1247 675,1269 718,1300 728,1284 686,1240 612,1214 504,1194 412,1164 344,1129 388,1102 364,1094 364,1094 364,1094"/>
<polygon class="pen1 brush14" points="770,1175 720,1263 728,1273 787,1195 770,1175 770,1175 770,1175"/>
<polygon class="pen1 brush14" points="840,1243 788,1297 753,1350 728,1420 757,1409 790,1337 821,1291 847,1265 840,1243 840,1243 840,1243"/>
<polygon class="pen1 brush14" points="355,1186 293,1219 270,1205 256,1223 386,1291 564,1346 676,1403 713,1451 715,1398 640,1350 529,1308 393,1273 314,1236 336,1225 355,1186 355,1186 355,1186"/>
<polygon class="pen1 brush14" points="801,1416 864,1442 876,1466 807,1447 794,1425 801,1416 801,1416 801,1416"/>
<polygon class="pen1 brush14" points="496,1322 449,1376 417,1451 403,1440 428,1372 485,1317 496,1322 496,1322 496,1322"/>
<polygon class="pen1 brush14" points="428,1324 388,1385 366,1442 360,1488 381,1453 404,1400 441,1339 428,1324 428,1324 428,1324"/>
<polygon class="pen1 brush14" points="371,1337 349,1390 340,1438 395,1344 371,1337 371,1337 371,1337"/>
<polygon class="pen1 brush14" points="311,1265 274,1297 190,1354 291,1433 296,1414 226,1354 333,1285 311,1265 311,1265 311,1265"/>
<polygon class="pen1 brush14" points="827,1298 873,1313 926,1344 990,1403 1013,1363 1099,1317 1181,1276 1275,1177 1270,1212 1224,1269 1183,1304 1132,1330 1176,1350 1213,1394 1194,1396 1156,1370 1115,1350 1071,1377 1027,1433 1013,1460 1082,1447 1189,1446 1222,1468 1196,1473 1115,1471 1031,1482 985,1490 972,1514 930,1653 979,1635 1069,1639 1152,1672 1163,1648 1167,1569 1134,1482 1161,1481 1178,1526 1189,1571 1187,1628 1260,1670 1304,1716 1327,1758 1312,1778 1288,1729 1237,1683 1193,1661 1165,1688 1152,1690 1143,1720 1088,1688 1022,1675 965,1677 919,1687 871,1782 829,1839 803,1854 790,1885 763,1913 728,1924 711,1896 741,1885 768,1870 785,1830 829,1786 862,1721 891,1635 913,1538 915,1440 897,1379 917,1376 889,1346 827,1317 827,1298 827,1298 827,1298"/>
<polygon class="pen1 brush14" points="1288,1398 1231,1420 1248,1481 1264,1477 1253,1438 1312,1398 1288,1398 1288,1398 1288,1398"/>
<polygon class="pen1 brush14" points="1268,1368 1235,1381 1214,1409 1220,1422 1268,1368 1268,1368 1268,1368"/>
<polygon class="pen1 brush14" points="1277,1536 1286,1479 1312,1398 1358,1337 1400,1355 1363,1436 1334,1552 1306,1617 1284,1607 1271,1556 1290,1558 1297,1587 1314,1560 1323,1501 1347,1433 1380,1370 1354,1367 1312,1442 1284,1547 1277,1536 1277,1536 1277,1536"/>
<polygon class="pen1 brush14" points="1351,1731 1336,1771 1319,1790 1334,1788 1369,1767 1369,1738 1351,1731 1351,1731 1351,1731"/>
<polygon class="pen1 brush14" points="359,1560 340,1598 347,1622 362,1609 384,1576 359,1560 359,1560 359,1560"/>
<polygon class="pen1 brush14" points="410,1710 438,1727 434,1744 403,1744 399,1721 410,1710 410,1710 410,1710"/>
<polygon class="pen1 brush14" points="827,1536 812,1571 838,1587 862,1561 827,1536 827,1536 827,1536"/>
<polygon class="pen1 brush14" points="673,1861 709,1839 759,1835 766,1847 742,1867 708,1870 680,1876 673,1861 673,1861 673,1861"/>
<polygon class="pen1 brush14" points="526,1813 542,1793 579,1799 612,1819 645,1819 684,1802 706,1766 731,1714 739,1731 733,1749 741,1767 722,1802 695,1830 652,1847 607,1843 566,1823 548,1832 526,1813 526,1813 526,1813"/>
<polygon class="pen1 brush14" points="849,1778 882,1799 911,1839 954,1801 996,1738 1009,1668 1029,1657 1018,1729 981,1804 937,1856 959,1891 959,1924 924,1870 871,1821 847,1799 849,1778 849,1778 849,1778"/>
<polygon class="pen1 brush14" points="832,1802 865,1839 886,1872 904,1955 956,1959 974,1900 992,1922 978,1986 906,1984 886,1970 862,1883 796,1898 803,1881 858,1869 843,1847 818,1821 832,1802 832,1802 832,1802"/>
<polygon class="pen1 brush14" points="932,1865 1022,1832 1108,1828 1194,1835 1273,1850 1306,1870 1341,1824 1380,1753 1391,1773 1371,1819 1317,1889 1279,1887 1224,1867 1134,1854 1035,1856 952,1883 932,1865 932,1865 932,1865"/>
<polygon class="pen1 brush14" points="647,2244 695,2211 741,2196 755,2174 801,2144 886,2111 996,2093 1005,2111 1031,2111 1093,2144 1181,2163 1209,2192 1196,2207 1084,2211 1005,2247 902,2277 796,2266 768,2262 691,2279 654,2275 647,2244 647,2244 647,2244"/>
<polygon class="pen1 brush14" points="588,2141 551,2132 539,2146 559,2166 625,2181 686,2181 682,2165 592,2159 588,2141 588,2141 588,2141"/>
<polygon class="pen1 brush14" points="360,1970 371,2005 397,2032 397,2007 384,1973 360,1970 360,1970 360,1970"/>
<polygon class="pen1 brush14" points="314,1968 276,1992 294,1995 324,1981 314,1968 314,1968 314,1968"/>
<polygon class="pen1 brush14" points="346,1986 293,2008 300,2018 355,2003 346,1986 346,1986 346,1986"/>
<polygon class="pen1 brush14" points="252,2019 289,2051 285,2076 261,2071 245,2060 245,2038 252,2019 252,2019 252,2019"/>
<polygon class="pen1 brush14" points="121,1780 206,1747 224,1760 114,1828 121,1780 121,1780 121,1780"/>
<polygon class="pen1 brush14" points="52,1620 201,1617 168,1640 37,1655 52,1620 52,1620 52,1620"/>
<polygon class="pen1 brush14" points="45,1416 182,1482 171,1491 26,1457 45,1416 45,1416 45,1416"/>
<polygon class="pen1 brush14" points="871,1887 785,1948 730,2018 693,2095 678,2152 699,2159 713,2106 744,2051 774,2008 821,1961 882,1918 871,1887 871,1887 871,1887"/>
<polygon class="pen1 brush14" points="381,1948 426,1902 469,1865 493,1891 533,1935 603,1986 586,1990 561,1979 568,2025 584,2089 605,2137 579,2117 557,2093 535,2008 533,1964 491,1924 463,1887 399,1962 381,1948 381,1948 381,1948"/>
<polygon class="pen1 brush14" points="52,1966 90,1920 232,2008 195,2005 96,1946 81,1968 203,2038 213,2018 235,2018 213,2060 83,1994 52,1966 52,1966 52,1966"/>
<polygon class="pen1 brush14" points="607,1900 594,1942 603,1986 610,2005 616,1983 627,1911 607,1900 607,1900 607,1900"/>
<polygon class="pen1 brush14" points="347,1287 320,1335 305,1387 291,1491 294,1578 309,1653 333,1723 316,1801 312,1891 320,1927 342,1970 338,1927 342,1826 366,1819 404,1828 470,1858 511,1872 563,1882 641,1891 638,1874 580,1865 474,1839 425,1808 388,1762 351,1698 324,1620 320,1519 316,1466 316,1433 342,1337 368,1297 347,1287 347,1287 347,1287"/>
</g>
</svg>