<?xml version="1.0" encoding="utf-8"?>
<!DOCTYPE svg PUBLIC "-//W3C//DTD SVG 1.0//EN" "http://www.w3.org/TR/2001/REC-SVG-20010904/DTD/svg10.dtd">
<svg aria-labelledby="title desc" fill-rule="evenodd" height="1.961in" preserveAspectRatio="none" stroke-linecap="round" viewBox="0 0 1968 1961" width="1.968in" xmlns="http://www.w3.org/2000/svg" xmlns:xlink="http://www.w3.org/1999/xlink"><title>academics,boys,children,classes,classrooms,education,girls,instructors,occupations,persons,schools,students,teachers,vocations,women</title><desc>Original keywords: academics,boys,children,classes,classrooms,education,girls,instructors,occupations,persons,schools,students,teachers,vocations,women. This clipart was ripped from the Microsoft website, then uploaded to https://archive.org/details/MS_Clipart_Collection. (The original WMF file can be found within that item, under the folder MC900088926). From there, it was then converted by Trumad to svg using https://github.com/hidekatsu-izuno/wmf2svg in a bulk operation. All the converted files can be found at https://archive.org/details/MS_Clipart_Collection_SVG</desc>
<style type="text/css">
.brush0 { fill: rgb(255,255,255); }
.pen0 { stroke: rgb(0,0,0); stroke-width: 1; stroke-linejoin: round; }
.brush1 { fill: none; }
.pen1 { stroke: none; }
.brush2 { fill: rgb(0,0,0); }
.brush3 { fill: rgb(170,114,89); }
.brush4 { fill: rgb(102,0,0); }
.brush5 { fill: rgb(242,216,206); }
.brush6 { fill: rgb(255,255,170); }
.brush7 { fill: rgb(38,0,255); }
.brush8 { fill: rgb(163,249,255); }
.brush9 { fill: rgb(255,158,244); }
.brush10 { fill: rgb(216,234,216); }
.brush11 { fill: rgb(153,76,0); }
.brush12 { fill: rgb(242,191,178); }
.brush13 { fill: rgb(153,38,0); }
.brush14 { fill: rgb(191,0,191); }
.brush15 { fill: rgb(0,255,114); }
.brush16 { fill: rgb(242,204,178); }
.brush17 { fill: rgb(255,140,102); }
.brush18 { fill: rgb(51,242,255); }
</style>
<g>
<polygon class="pen1 brush2" points="1333,806 1327,937 1296,956 1328,953 1337,964 1338,978 1335,993 1334,1007 1305,1025 1280,1046 1256,1071 1236,1098 1217,1128 1201,1159 1187,1191 1175,1223 1163,1213 1154,1201 1148,1187 1144,1172 1141,1156 1138,1140 1134,1124 1129,1110 1125,1094 1120,1078 1114,1063 1108,1048 1115,1035 1119,1020 1119,1006 1116,990 1114,991 1110,993 1105,995 1100,997 1096,992 1093,986 1093,980 1096,973 1296,956 1327,937 1333,806 1459,660 1509,226 1381,202 1142,172 928,154 938,134 940,113 937,92 929,71 925,64 920,57 914,51 908,45 901,40 893,35 885,32 877,29 871,23 865,18 858,13 851,9 844,6 837,4 829,2 821,1 816,1 810,1 805,1 800,2 794,2 789,3 783,5 778,6 771,9 764,11 755,12 746,13 737,14 729,16 721,20 714,26 708,34 702,41 694,46 685,50 676,54 667,58 659,62 650,66 642,74 635,83 629,93 624,103 619,114 615,125 611,136 607,146 527,147 404,156 387,158 369,161 352,163 335,165 318,168 301,171 283,173 266,176 249,180 231,183 214,186 196,190 178,194 160,199 142,203 123,208 126,245 135,342 146,479 159,636 172,793 183,930 191,1026 194,1063 197,1063 205,1061 218,1060 233,1058 250,1056 267,1054 282,1052 296,1051 291,1056 286,1061 281,1066 275,1071 269,1076 263,1080 256,1085 250,1089 145,1169 132,1189 120,1194 108,1199 95,1203 82,1209 71,1215 62,1223 54,1234 50,1247 46,1289 44,1332 43,1375 46,1418 40,1420 35,1421 29,1423 24,1424 18,1425 12,1426 6,1428 0,1429 1,1450 3,1470 7,1490 15,1508 216,1947 227,1958 231,1958 235,1956 238,1954 242,1954 606,1852 1952,1461 1956,1444 1960,1426 1965,1409 1968,1392 1763,1227 1768,1222 1773,1217 1778,1212 1784,1208 1789,1203 1794,1198 1798,1192 1801,1185 1799,1168 1795,1154 1787,1140 1778,1128 1767,1117 1755,1106 1744,1095 1733,1084 1735,1063 1739,1043 1742,1024 1739,1004 1734,1002 1729,999 1724,997 1719,996 1713,994 1707,993 1702,993 1696,992 1685,994 1677,991 1669,986 1663,978 1657,970 1651,960 1645,952 1638,945 1636,901 1636,856 1634,811 1622,767 1628,766 1634,765 1639,763 1643,760 1647,756 1651,753 1653,748 1655,743 1652,734 1648,726 1643,720 1637,713 1630,708 1623,702 1616,697 1608,692 1603,690 1599,688 1595,684 1592,681 1588,677 1584,674 1579,671 1573,669 1568,669 1563,667 1560,664 1557,660 1554,656 1551,652 1547,648 1543,645 1538,642 1532,641 1526,640 1521,640 1515,642 1509,643 1503,645 1498,648 1491,654 1484,660 1478,666 1475,675 1470,676 1464,676 1460,676 1458,676 1459,660 1333,806"/>
<polygon class="pen1 brush3" points="1328,213 1494,238 1492,256 1487,303 1479,371 1470,449 1461,528 1453,599 1447,651 1443,676 1440,677 1437,679 1434,681 1431,683 1428,685 1423,689 1418,693 1412,699 1405,710 1391,712 1379,715 1367,719 1356,725 1346,734 1336,745 1328,759 1320,776 1321,781 1321,785 1321,790 1324,794 1334,796 1319,828 1313,863 1313,899 1321,936 1097,957 1095,949 1092,943 1086,938 1080,934 1083,921 1087,909 1092,896 1097,883 1103,872 1111,861 1120,852 1131,845 1139,834 1146,822 1150,809 1153,797 1153,783 1152,770 1148,757 1142,743 1137,736 1132,728 1127,721 1121,714 1114,708 1107,703 1099,700 1090,698 1079,690 1067,683 1055,677 1043,673 1030,670 1017,668 1004,668 991,668 992,626 997,585 1006,545 1018,504 1014,499 1009,496 1003,495 997,495 991,495 984,496 977,497 971,497 969,479 966,461 960,444 952,428 943,413 931,399 918,388 902,378 890,371 878,365 866,359 854,354 842,349 830,344 818,338 806,332 822,324 837,314 851,301 863,285 873,269 880,251 885,233 887,215 894,204 897,190 902,179 915,173 1112,189 1328,213"/>
<polygon class="pen1 brush4" points="823,19 830,20 837,23 843,25 850,29 856,33 862,37 868,41 873,46 881,47 888,50 894,54 899,60 904,66 908,72 912,79 915,86 918,103 917,119 910,134 894,147 891,134 889,120 887,108 886,103 883,107 879,112 876,116 872,119 867,122 862,124 857,125 851,125 835,125 818,123 801,120 784,118 767,117 752,119 737,126 724,139 716,162 712,160 709,159 705,158 701,158 697,158 693,159 690,160 686,162 680,167 675,174 672,181 670,189 671,199 673,209 676,218 681,226 679,235 679,244 681,253 687,260 687,273 682,284 674,294 665,303 664,290 660,278 653,266 647,255 641,243 637,231 636,219 641,206 636,190 634,174 634,158 636,143 640,128 646,113 654,99 664,86 667,83 670,79 674,76 678,74 682,71 686,69 690,67 695,65 701,67 705,63 708,56 713,52 721,47 730,43 739,40 748,38 757,35 766,32 774,29 781,24 787,22 792,20 797,19 803,18 808,18 813,18 818,18 823,19"/>
<polygon class="pen1 brush3" points="372,179 378,178 387,178 397,177 409,176 423,174 438,173 454,171 470,170 487,169 505,167 523,166 540,165 557,164 573,164 589,164 603,164 608,181 615,198 618,214 613,230 618,256 626,281 633,306 635,331 648,335 639,347 628,358 615,368 602,377 589,387 575,396 562,406 550,417 535,430 520,444 506,459 494,476 482,493 473,511 466,531 461,551 456,587 455,624 459,661 469,697 460,697 451,699 443,702 435,706 428,710 421,715 414,719 407,724 405,730 402,735 398,738 393,741 388,743 382,746 376,748 371,750 356,761 341,773 327,787 313,801 302,817 292,834 285,852 282,872 281,893 284,913 290,932 298,951 307,969 317,987 327,1005 335,1023 330,1029 208,1042 144,221 232,201 237,200 250,198 269,195 292,191 316,187 339,184 358,181 372,179"/>
<polygon class="pen1 brush2" points="473,264 472,288 470,342 468,399 464,431 277,445 271,446 263,447 255,448 245,450 236,451 228,452 220,454 215,455 212,423 207,365 202,310 200,286 473,264"/>
<polygon class="pen1 brush5" points="875,133 877,144 879,156 880,167 882,179 875,178 868,178 862,179 857,184 861,188 867,188 873,187 879,189 879,194 875,197 869,200 862,201 859,202 857,204 856,206 854,208 868,214 871,225 868,238 866,251 861,262 855,272 848,281 840,289 832,296 823,303 813,310 804,316 793,319 783,320 773,317 764,313 755,307 747,301 739,294 732,287 728,280 726,272 723,265 717,262 715,276 718,291 725,303 734,314 766,337 768,352 769,367 772,382 778,394 780,379 780,366 780,356 785,345 795,364 795,384 790,405 780,424 776,431 771,436 765,442 759,446 753,450 746,453 738,455 730,456 721,454 713,451 705,447 698,442 691,436 685,429 680,422 675,413 670,403 668,391 665,380 663,369 672,369 676,357 680,346 683,334 687,322 691,310 695,298 700,286 706,274 706,261 710,249 713,238 707,225 699,219 693,212 690,204 691,195 692,188 694,180 697,174 703,171 711,173 716,178 719,182 725,182 730,170 734,157 740,146 751,138 767,135 782,135 798,136 813,139 828,141 843,142 859,139 875,133"/>
<polygon class="pen1 brush6" points="462,276 461,297 458,343 455,391 454,416 331,425 318,426 305,427 292,429 279,430 266,431 253,434 241,436 228,440 224,404 220,368 216,333 212,297 274,291 462,276"/>
<polygon class="pen1 brush2" points="831,177 828,179 825,179 821,178 817,177 813,175 808,173 803,170 798,168 793,167 788,167 783,166 780,164 787,161 795,160 801,161 808,162 814,165 820,168 826,173 831,177"/>
<polygon class="pen1 brush2" points="711,205 709,207 707,207 705,207 703,205 704,186 707,189 709,194 711,200 711,205"/>
<polygon class="pen1 brush2" points="824,191 824,195 822,199 818,201 814,202 798,199 789,192 786,186 785,183 789,186 793,188 797,190 802,192 807,193 813,193 818,192 824,191"/>
<polygon class="pen1 brush7" points="697,231 701,234 704,239 704,245 702,250 692,251 690,246 689,239 691,234 697,231"/>
<polygon class="pen1 brush2" points="844,206 846,214 843,222 839,230 837,239 837,244 836,250 835,256 832,262 828,263 825,263 822,261 821,257 824,243 828,229 833,216 844,206"/>
<polygon class="pen1 brush2" points="792,248 796,251 802,251 806,252 808,256 805,258 800,258 796,258 792,257 789,248 792,248"/>
<polygon class="pen1 brush2" points="817,282 816,286 812,289 807,291 803,294 796,295 789,294 783,291 777,287 773,273 778,275 783,277 788,279 793,281 798,282 804,283 810,283 817,282"/>
<polygon class="pen1 brush7" points="710,466 716,468 723,469 729,469 736,469 743,467 750,466 756,463 763,460 773,450 782,440 791,429 800,416 806,403 811,390 813,375 812,360 810,355 830,364 852,373 874,384 895,395 915,410 930,427 941,447 946,472 946,479 947,485 947,491 948,498 938,499 927,500 917,501 907,501 897,502 887,502 876,503 866,503 856,503 846,503 836,503 826,502 816,502 807,501 797,501 787,500 783,502 779,504 776,507 775,511 784,567 774,568 765,571 758,575 751,580 744,586 738,593 733,600 727,607 723,604 711,610 698,614 686,618 673,620 660,622 647,624 634,628 621,632 618,615 614,595 609,574 603,553 597,534 592,519 588,509 586,506 579,511 588,543 594,577 597,611 596,645 591,650 587,655 582,660 578,665 574,671 571,677 568,683 566,690 571,698 584,683 600,671 618,661 637,653 657,646 677,640 698,634 718,628 716,643 715,658 715,673 719,688 725,691 634,760 629,762 625,764 621,766 617,769 613,771 608,773 603,774 598,775 597,766 595,757 591,749 587,742 582,735 576,730 569,725 562,722 559,717 556,713 553,708 549,703 544,699 540,696 534,693 528,691 524,691 520,691 516,691 512,692 508,693 505,695 501,696 498,698 492,672 486,646 482,620 481,594 481,568 485,543 492,518 503,495 518,476 533,459 550,442 567,427 585,412 604,398 623,384 642,371 645,386 649,401 655,415 663,428 672,440 683,451 696,460 710,466"/>
<polygon class="pen1 brush2" points="411,476 413,500 416,553 419,608 418,635 413,635 408,635 402,635 396,636 389,637 383,637 377,638 372,639 370,740 356,743 342,747 328,750 314,752 300,755 286,757 273,758 259,759 243,595 246,592 253,590 261,588 272,586 283,585 293,584 302,584 308,585 308,561 308,535 307,509 306,485 319,484 333,482 346,481 359,480 371,478 384,477 398,477 411,476"/>
<polygon class="pen1 brush8" points="402,492 407,621 322,629 318,498 329,498 339,497 350,496 360,495 371,494 381,493 392,492 402,492"/>
<polygon class="pen1 brush2" points="1424,335 1381,638 1378,639 1371,640 1359,641 1345,641 1329,641 1311,641 1291,640 1271,639 1251,639 1232,638 1214,637 1197,636 1184,635 1173,635 1166,634 1164,634 1158,634 1151,634 1145,635 1138,635 1132,634 1126,633 1120,631 1115,628 1123,327 1123,323 1124,320 1126,317 1129,315 1132,315 1141,316 1155,317 1172,318 1194,320 1217,322 1243,324 1269,326 1296,328 1322,330 1347,331 1370,333 1390,334 1406,335 1418,335 1424,335"/>
<polygon class="pen1 brush9" points="1367,630 1131,622 1139,326 1409,348 1367,630"/>
<polygon class="pen1 brush10" points="310,595 310,606 311,618 312,630 314,641 358,640 360,662 361,684 362,706 362,727 351,730 340,733 328,736 316,738 305,740 293,742 281,744 270,746 259,600 265,599 272,598 278,597 285,596 291,596 297,595 304,595 310,595"/>
<polygon class="pen1 brush6" points="996,512 986,540 964,653 966,662 965,668 960,672 953,675 946,678 938,681 932,685 927,690 920,694 913,699 907,704 901,710 896,716 890,722 885,729 880,736 867,738 855,739 842,740 829,740 816,740 804,740 791,740 779,740 778,730 780,720 783,710 786,700 856,719 863,717 868,713 874,709 879,704 883,699 888,695 893,690 899,687 899,685 904,683 910,681 916,681 921,680 927,679 932,677 936,674 939,669 938,664 935,659 932,656 927,653 930,651 934,648 937,644 937,638 932,635 926,633 921,630 916,629 911,627 905,626 900,626 894,626 901,619 909,613 916,605 919,595 916,591 912,589 907,587 902,586 891,586 880,589 871,593 861,598 852,603 843,607 833,607 823,605 802,598 803,578 801,557 798,536 795,515 808,516 820,516 833,517 845,517 858,518 870,518 883,518 895,518 908,518 920,518 933,518 945,517 958,516 971,515 983,514 996,512"/>
<polygon class="pen1 brush5" points="785,579 786,586 785,592 782,596 775,598 773,598 772,600 771,601 770,602 773,607 778,611 783,613 789,614 800,616 812,618 823,620 835,621 846,621 857,619 868,614 877,605 902,598 895,604 888,610 881,617 874,624 867,631 861,639 857,649 854,659 859,660 863,659 867,656 871,653 875,649 879,645 883,643 889,641 893,640 897,639 900,639 904,639 908,640 912,640 915,642 919,643 910,646 902,649 894,652 886,655 879,659 872,663 865,668 859,673 863,677 866,678 871,678 875,675 879,672 884,669 888,666 893,664 897,664 901,664 905,664 909,663 913,663 917,663 920,665 923,667 915,669 907,671 898,673 890,676 882,679 874,683 867,687 861,693 861,695 862,697 863,698 865,699 862,701 858,702 854,702 851,701 838,695 825,689 811,685 798,681 785,677 771,673 758,668 745,663 741,665 737,668 733,670 728,671 726,659 727,647 731,637 736,627 743,617 750,608 757,598 763,589 768,586 774,584 780,582 785,579"/>
<polygon class="pen1 brush11" points="475,722 473,725 470,728 469,731 470,735 478,736 486,733 493,728 499,723 506,718 514,715 522,715 531,720 525,726 520,733 516,741 514,751 517,758 521,765 526,770 533,774 536,773 538,772 539,769 540,767 536,764 533,760 531,755 531,750 535,745 540,742 546,740 552,740 560,743 567,749 571,756 571,765 568,774 564,783 559,790 550,794 544,795 538,796 532,798 526,800 521,803 516,807 511,811 506,816 496,822 485,825 474,826 463,826 452,826 443,829 435,835 429,846 411,861 409,880 409,899 409,919 408,938 404,936 400,934 396,932 392,931 387,931 383,932 379,933 375,936 369,945 365,954 363,963 364,972 369,982 374,991 381,1000 390,1006 387,1011 384,1016 380,1021 376,1026 372,1030 368,1035 364,1039 360,1043 352,1013 341,982 330,950 321,919 316,888 317,858 327,829 347,801 355,792 364,784 373,776 382,768 392,761 402,754 412,749 423,744 425,738 428,733 433,728 439,725 444,723 448,722 453,722 457,722 462,722 466,722 471,722 475,722"/>
<polygon class="pen1 brush7" points="763,744 766,752 772,754 780,754 790,753 800,753 810,753 820,753 831,752 841,752 851,751 862,750 872,749 867,755 865,762 864,769 863,776 862,782 858,787 852,789 843,789 838,792 833,797 828,802 824,807 820,813 816,819 813,825 810,831 810,839 811,848 813,856 816,863 806,873 798,886 794,901 794,915 796,923 792,930 785,938 783,947 783,952 784,957 784,963 783,967 778,969 774,964 771,960 769,954 767,940 763,946 762,953 761,960 760,967 762,975 766,982 771,988 778,992 767,1001 756,1011 745,1021 734,1032 724,1044 715,1057 708,1071 702,1086 702,1091 701,1096 700,1102 700,1107 696,1108 691,1108 687,1110 683,1111 679,1114 675,1116 671,1119 668,1122 659,1158 660,1195 665,1232 669,1269 682,1320 659,1322 661,1299 661,1274 660,1250 657,1225 651,1201 644,1178 634,1156 622,1135 623,1121 619,1108 616,1095 624,1083 631,1077 637,1071 644,1065 651,1058 657,1051 662,1044 666,1036 669,1027 669,1016 668,1005 667,994 664,983 660,973 655,965 647,957 637,952 629,947 623,946 616,948 610,951 604,956 599,960 593,964 587,965 586,955 592,948 599,941 601,931 598,923 594,917 589,910 584,904 579,898 575,892 572,884 572,875 574,861 575,846 574,831 569,815 576,812 581,807 586,802 590,797 594,792 599,789 606,787 615,788 635,780 653,771 670,760 686,748 702,735 718,722 733,709 748,695 749,688 757,689 763,692 766,697 768,702 763,744"/>
<polygon class="pen1 brush12" points="554,828 557,846 556,864 555,882 558,899 560,906 564,912 569,918 574,924 578,929 580,935 579,940 574,946 570,948 567,949 564,952 564,956 569,958 573,962 575,966 575,972 569,979 560,984 552,990 550,999 571,993 574,1000 573,1007 571,1013 567,1019 563,1024 558,1030 554,1036 551,1042 537,1044 523,1046 509,1047 495,1047 482,1045 469,1042 456,1036 445,1028 443,1028 444,1034 447,1040 450,1045 455,1050 460,1054 465,1058 471,1061 477,1063 474,1071 468,1078 465,1085 469,1094 464,1102 458,1109 452,1115 444,1121 435,1117 427,1112 420,1106 414,1098 409,1090 404,1081 399,1072 394,1064 386,1056 384,1049 387,1043 391,1037 397,1031 403,1025 406,1018 406,1010 409,1009 411,1008 413,1005 414,1002 406,999 400,994 393,989 387,983 384,975 381,966 381,957 386,949 392,946 398,946 403,949 407,952 411,954 416,955 420,953 425,947 429,932 428,916 425,899 423,883 426,877 429,872 434,867 439,862 444,857 449,852 454,846 457,839 465,840 475,840 484,839 494,837 503,834 511,829 518,824 524,817 529,818 534,818 539,817 543,817 547,817 551,819 553,822 554,828"/>
<polygon class="pen1 brush2" points="542,868 539,874 533,878 526,882 520,887 518,890 516,892 513,894 509,895 511,887 516,881 523,875 529,870 532,869 536,868 539,867 542,868"/>
<polygon class="pen1 brush2" points="547,897 548,901 548,905 545,908 542,910 538,912 533,914 527,915 523,915 527,910 532,905 539,901 544,896 545,897 546,897 546,897 547,897"/>
<polygon class="pen1 brush13" points="1086,783 1088,792 1092,800 1097,809 1102,817 1105,825 1107,833 1106,842 1101,850 1096,845 1090,842 1083,841 1076,840 1074,846 1076,850 1081,853 1086,855 1091,857 1094,860 1094,864 1089,869 1086,872 1081,873 1075,874 1070,874 1065,875 1063,877 1063,881 1068,887 1073,897 1072,908 1068,920 1063,931 1057,941 1051,951 1044,961 1037,969 1028,976 1019,982 1008,987 996,989 985,989 974,987 963,983 952,978 942,971 934,963 926,954 919,944 916,935 915,925 915,915 915,905 913,905 912,904 910,904 908,904 902,917 903,932 907,947 914,960 918,967 923,973 928,979 934,984 941,990 947,994 955,999 962,1003 959,1011 947,1009 936,1005 925,1000 916,995 906,989 897,982 888,974 879,966 883,944 888,922 893,900 898,878 893,869 888,860 884,851 883,840 885,832 889,825 894,820 901,816 905,819 907,822 909,826 910,831 915,830 919,827 921,822 922,816 931,808 940,802 950,797 959,795 969,794 980,794 990,794 1001,795 1011,797 1022,798 1033,798 1044,798 1054,797 1065,794 1076,789 1086,783"/>
<polygon class="pen1 brush2" points="413,978 408,979 404,974 400,968 394,966 395,959 401,962 406,966 410,972 413,978"/>
<polygon class="pen1 brush14" points="1548,666 1542,673 1536,677 1530,677 1523,676 1516,675 1508,673 1501,673 1493,675 1495,669 1499,664 1504,661 1510,657 1515,654 1520,653 1526,654 1531,655 1535,657 1540,660 1544,663 1548,666"/>
<polygon class="pen1 brush2" points="902,843 903,845 904,847 903,849 902,851 898,849 896,845 896,840 894,835 898,834 900,836 901,839 902,843"/>
<polygon class="pen1 brush2" points="1025,820 1026,826 1022,828 1018,826 1013,823 1009,821 1005,820 1002,820 998,819 995,819 991,819 987,819 983,818 978,817 983,812 990,811 997,811 1004,810 1009,812 1015,815 1020,817 1025,820"/>
<polygon class="pen1 brush14" points="1576,688 1577,689 1578,691 1579,692 1579,694 1570,702 1548,685 1554,680 1562,680 1569,683 1576,688"/>
<polygon class="pen1 brush2" points="992,845 997,850 1004,853 1011,855 1017,862 1013,864 1009,865 1005,866 1001,866 997,866 993,865 989,862 986,859 982,851 982,842 984,837 992,845"/>
<polygon class="pen1 brush12" points="648,980 651,992 651,1005 649,1019 648,1031 638,1039 630,1049 622,1060 614,1071 606,1081 596,1088 585,1092 571,1090 566,1078 564,1067 565,1056 568,1046 572,1036 578,1027 585,1017 592,1008 597,1005 602,1002 606,998 611,995 616,992 621,991 627,990 632,992 634,993 637,994 639,994 641,994 643,991 643,989 641,986 639,984 634,982 631,977 628,972 623,969 619,972 615,976 611,980 608,983 604,987 600,990 595,992 590,994 589,993 587,992 586,990 584,990 590,984 598,976 607,970 616,964 626,962 634,963 642,968 648,980"/>
<polygon class="pen1 brush14" points="1631,737 1627,743 1623,747 1618,750 1612,753 1606,754 1600,756 1593,758 1587,760 1586,749 1586,739 1583,728 1579,719 1584,721 1587,725 1591,729 1594,733 1594,736 1593,739 1593,742 1594,745 1597,746 1599,746 1602,746 1603,744 1605,738 1604,733 1602,727 1599,722 1581,707 1585,703 1589,700 1593,700 1598,700 1602,702 1606,705 1610,708 1614,712 1620,717 1626,723 1630,729 1631,737"/>
<polygon class="pen1 brush15" points="350,1063 355,1076 361,1089 366,1101 372,1114 378,1126 384,1138 391,1150 398,1161 403,1166 409,1171 416,1175 423,1178 436,1175 448,1172 460,1166 471,1159 480,1151 488,1141 494,1129 498,1116 500,1105 501,1093 503,1082 503,1071 507,1068 512,1065 517,1063 523,1062 529,1060 535,1059 540,1057 545,1056 543,1068 543,1079 545,1091 547,1101 536,1109 536,1119 541,1132 542,1144 534,1168 528,1192 522,1217 519,1242 517,1267 517,1292 520,1318 526,1344 509,1346 492,1349 475,1351 458,1354 441,1356 424,1359 407,1361 390,1364 380,1357 371,1351 361,1344 350,1338 340,1333 329,1329 317,1325 306,1323 305,1307 307,1290 309,1273 310,1255 309,1238 305,1222 296,1208 282,1196 276,1193 269,1189 261,1184 254,1179 247,1175 242,1171 238,1168 237,1167 242,1178 250,1188 260,1196 270,1205 279,1214 287,1224 291,1235 292,1250 289,1268 284,1285 277,1302 271,1319 257,1320 243,1322 230,1326 217,1331 205,1338 193,1345 182,1354 172,1362 175,1362 182,1360 192,1357 204,1354 218,1350 232,1347 245,1346 257,1346 271,1346 286,1346 300,1347 314,1349 328,1352 342,1356 355,1363 368,1371 362,1385 355,1399 348,1413 339,1426 327,1429 314,1431 302,1434 290,1436 277,1437 265,1439 253,1440 241,1441 229,1441 217,1441 205,1441 193,1440 181,1439 169,1437 158,1434 146,1431 138,1428 130,1424 121,1421 112,1417 105,1411 99,1405 96,1396 97,1385 98,1349 104,1312 115,1276 132,1241 152,1209 176,1179 202,1153 231,1131 333,1063 341,1054 343,1056 344,1060 346,1063 350,1063"/>
<polygon class="pen1 brush15" points="377,1067 382,1077 388,1086 394,1096 400,1105 407,1114 414,1123 422,1131 431,1138 437,1138 443,1138 449,1136 455,1134 461,1132 466,1129 471,1125 476,1121 474,1133 467,1143 458,1151 448,1159 443,1160 438,1160 433,1161 428,1161 424,1160 420,1158 416,1155 413,1151 406,1140 400,1129 393,1118 387,1106 381,1094 375,1082 370,1070 365,1058 370,1055 373,1058 375,1063 377,1067"/>
<polygon class="pen1 brush2" points="1056,870 1050,880 1046,887 1042,894 1040,903 1037,911 1036,919 1034,927 1030,935 1027,934 1023,933 1019,932 1016,929 1024,924 1027,915 1029,906 1033,897 1037,889 1042,880 1048,873 1056,870"/>
<polygon class="pen1 brush16" points="1377,786 1376,792 1375,798 1376,804 1379,810 1384,814 1390,817 1396,819 1402,821 1408,822 1415,822 1421,820 1427,818 1434,806 1437,814 1441,822 1446,828 1452,834 1459,839 1466,843 1475,846 1483,849 1491,845 1492,835 1491,824 1498,819 1500,835 1504,851 1511,866 1522,876 1526,873 1529,871 1533,870 1538,870 1541,872 1543,876 1543,880 1543,884 1540,892 1534,901 1527,907 1519,912 1509,931 1503,950 1499,971 1496,991 1483,1004 1471,1017 1459,1030 1447,1045 1435,1059 1423,1074 1412,1089 1401,1105 1396,1091 1395,1078 1397,1065 1401,1051 1405,1038 1410,1025 1414,1012 1416,998 1428,991 1440,985 1452,978 1464,972 1476,965 1487,957 1497,947 1505,936 1505,933 1504,931 1501,930 1499,930 1485,938 1471,947 1457,957 1442,965 1427,972 1411,977 1395,979 1377,977 1369,971 1362,961 1355,950 1349,937 1344,924 1340,909 1336,895 1334,882 1336,861 1340,841 1344,821 1348,800 1351,801 1356,802 1360,802 1363,799 1366,795 1369,791 1373,788 1377,786"/>
<polygon class="pen1 brush2" points="1010,919 1006,922 1001,922 997,920 992,919 990,918 990,916 990,914 991,912 996,913 1002,913 1007,915 1010,919"/>
<polygon class="pen1 brush2" points="1382,828 1382,830 1382,831 1381,832 1381,833 1374,836 1367,836 1360,835 1354,831 1350,815 1354,818 1358,820 1362,823 1366,825 1369,827 1373,828 1377,829 1382,828"/>
<polygon class="pen1 brush2" points="983,945 987,948 992,950 996,951 1001,953 1005,954 1009,956 1013,958 1017,960 1012,962 1007,963 1001,964 995,965 990,964 984,963 979,961 975,958 969,935 973,936 976,939 979,942 983,945"/>
<polygon class="pen1 brush2" points="1397,834 1395,849 1390,864 1384,879 1376,892 1377,895 1376,897 1375,899 1373,901 1368,899 1366,894 1366,888 1367,882 1371,876 1376,869 1381,861 1386,853 1390,845 1394,840 1396,835 1397,834"/>
<polygon class="pen1 brush17" points="973,1024 974,1029 974,1035 974,1040 980,1044 987,1040 991,1034 993,1027 995,1019 997,1012 1000,1007 1006,1003 1015,1002 1042,1007 1063,1016 1079,1029 1090,1047 1098,1067 1104,1090 1107,1116 1110,1143 1112,1156 1115,1168 1119,1181 1124,1192 1130,1204 1137,1214 1145,1224 1154,1233 1154,1248 1097,1257 1094,1233 1090,1209 1087,1184 1084,1160 1080,1135 1075,1111 1069,1087 1061,1064 1059,1059 1056,1055 1052,1052 1048,1051 1044,1052 1057,1105 1063,1157 1065,1209 1066,1261 923,1284 918,1278 912,1273 907,1268 901,1263 894,1258 888,1253 881,1249 875,1245 873,1228 871,1211 868,1194 863,1178 858,1161 853,1145 846,1129 839,1114 836,1109 832,1104 828,1099 825,1095 820,1091 815,1088 810,1086 804,1086 805,1094 810,1100 816,1106 821,1113 827,1130 833,1146 838,1163 843,1180 847,1196 850,1213 853,1230 854,1247 866,1259 878,1271 890,1283 902,1295 914,1308 925,1320 936,1333 947,1346 935,1360 927,1376 923,1393 924,1410 821,1374 812,1370 804,1365 797,1361 790,1357 784,1352 779,1347 774,1341 769,1334 759,1304 749,1274 741,1244 734,1213 730,1182 728,1152 730,1122 736,1092 742,1080 748,1068 755,1056 764,1044 773,1033 782,1023 793,1014 804,1006 809,1007 814,1008 820,1008 825,1008 830,1008 835,1007 840,1006 845,1004 856,1017 869,1028 883,1038 899,1045 915,1050 932,1053 949,1053 965,1050 969,1045 966,1042 962,1040 958,1039 954,1039 949,1040 944,1041 939,1042 933,1042 922,1040 911,1036 901,1032 891,1026 882,1020 874,1012 867,1003 861,993 870,980 881,989 892,999 904,1007 917,1015 930,1021 944,1025 958,1026 973,1024"/>
<polygon class="pen1 brush2" points="1463,854 1464,856 1462,858 1459,860 1457,862 1453,864 1449,865 1445,865 1441,865 1437,864 1433,863 1430,861 1427,858 1423,844 1428,847 1433,849 1438,851 1443,852 1448,853 1454,854 1458,854 1463,854"/>
<polygon class="pen1 brush18" points="119,1214 106,1238 95,1262 87,1286 80,1311 75,1336 72,1362 70,1387 70,1413 63,1415 57,1376 57,1337 61,1298 63,1259 66,1250 69,1241 73,1233 81,1227 86,1225 90,1223 95,1221 100,1219 104,1218 109,1216 114,1215 119,1214"/>
<polygon class="pen1 brush15" points="597,1110 600,1130 595,1130 590,1130 585,1131 580,1132 575,1133 570,1134 565,1136 560,1137 556,1130 556,1122 560,1116 569,1113 576,1111 583,1110 590,1109 597,1110"/>
<polygon class="pen1 brush2" points="1411,906 1408,909 1404,909 1400,908 1396,907 1393,906 1392,904 1392,902 1391,899 1397,899 1402,901 1407,904 1411,906"/>
<polygon class="pen1 brush2" points="1530,882 1529,887 1527,891 1524,895 1520,898 1517,894 1519,889 1522,885 1525,880 1526,880 1528,880 1529,881 1530,882"/>
<polygon class="pen1 brush2" points="1420,928 1426,931 1424,935 1421,938 1417,941 1413,943 1409,945 1404,946 1400,946 1396,946 1388,944 1381,941 1376,938 1372,934 1369,931 1367,928 1366,926 1366,925 1372,928 1379,930 1386,932 1393,932 1401,932 1407,932 1414,930 1420,928"/>
<polygon class="pen1 brush15" points="609,1142 620,1168 630,1195 637,1223 641,1251 642,1279 640,1306 635,1333 626,1359 624,1365 622,1370 618,1375 614,1380 609,1384 603,1387 596,1390 589,1391 571,1365 558,1337 549,1307 545,1276 544,1244 546,1212 551,1181 558,1152 564,1149 570,1146 576,1144 583,1142 589,1141 596,1141 603,1141 609,1142"/>
<polygon class="pen1 brush18" points="698,1130 700,1152 702,1175 705,1197 709,1220 714,1243 720,1265 726,1288 734,1310 693,1318 686,1274 681,1230 679,1185 681,1142 684,1137 689,1134 694,1133 698,1130"/>
<polygon class="pen1 brush2" points="1401,955 1397,957 1393,957 1389,956 1385,955 1384,950 1389,950 1394,950 1399,951 1401,955"/>
<polygon class="pen1 brush14" points="1399,1132 1406,1127 1411,1120 1415,1113 1420,1106 1428,1095 1437,1083 1446,1072 1455,1062 1464,1052 1474,1042 1484,1032 1494,1023 1496,1032 1497,1042 1498,1053 1499,1064 1501,1074 1505,1083 1512,1090 1522,1095 1523,1089 1522,1082 1520,1076 1520,1070 1526,1051 1533,1033 1543,1015 1554,998 1567,984 1582,972 1600,964 1620,960 1637,971 1650,984 1661,1001 1670,1019 1678,1037 1687,1056 1697,1073 1709,1088 1718,1099 1729,1109 1739,1119 1749,1130 1759,1141 1767,1152 1774,1165 1779,1179 1771,1187 1763,1194 1754,1201 1745,1207 1735,1213 1726,1219 1716,1225 1706,1230 1695,1235 1685,1240 1674,1244 1663,1249 1652,1253 1641,1257 1630,1261 1619,1265 1614,1258 1609,1251 1604,1244 1599,1238 1593,1231 1587,1225 1581,1219 1575,1214 1586,1202 1598,1191 1610,1180 1624,1170 1638,1162 1654,1156 1671,1152 1689,1151 1696,1150 1704,1148 1713,1147 1721,1145 1728,1143 1734,1142 1737,1140 1737,1139 1722,1135 1706,1133 1691,1133 1676,1135 1660,1138 1645,1142 1629,1147 1613,1152 1598,1136 1587,1120 1578,1104 1573,1088 1569,1075 1567,1065 1566,1058 1565,1055 1560,1065 1555,1085 1552,1109 1553,1127 1558,1131 1562,1136 1567,1140 1572,1144 1577,1148 1582,1153 1586,1157 1591,1162 1586,1171 1580,1177 1573,1182 1564,1185 1558,1186 1547,1188 1532,1191 1515,1194 1494,1197 1472,1200 1448,1204 1424,1207 1401,1211 1378,1214 1357,1217 1338,1220 1322,1223 1310,1224 1302,1226 1299,1226 1303,1185 1310,1139 1315,1103 1316,1089 1308,1106 1301,1123 1295,1141 1290,1159 1285,1177 1281,1194 1277,1212 1272,1230 1205,1240 1208,1222 1213,1204 1219,1186 1226,1168 1233,1151 1242,1134 1252,1118 1263,1102 1274,1088 1286,1073 1299,1060 1313,1047 1327,1036 1342,1025 1358,1015 1374,1007 1374,1022 1373,1038 1373,1054 1373,1071 1376,1087 1380,1103 1388,1118 1399,1132"/>
<polygon class="pen1 brush8" points="78,1431 94,1440 110,1448 126,1455 143,1460 159,1465 176,1468 194,1470 211,1471 228,1472 245,1471 263,1469 280,1466 297,1461 314,1456 331,1450 348,1443 354,1446 361,1448 367,1450 373,1451 379,1452 385,1455 392,1458 398,1462 391,1465 383,1467 376,1470 368,1473 361,1477 354,1480 347,1484 341,1489 347,1495 353,1500 359,1504 366,1509 360,1512 353,1513 346,1514 338,1514 331,1515 324,1518 318,1522 314,1528 314,1545 319,1559 328,1572 339,1584 350,1596 359,1609 365,1625 365,1643 365,1654 365,1666 366,1678 367,1689 370,1701 375,1711 382,1719 392,1726 666,1677 668,1664 666,1651 660,1639 653,1629 755,1591 760,1588 766,1587 773,1585 779,1584 785,1582 789,1579 791,1575 790,1568 773,1559 760,1547 748,1534 737,1520 727,1505 716,1491 704,1479 690,1468 680,1463 670,1458 660,1453 650,1449 640,1444 631,1438 622,1431 615,1423 611,1420 607,1419 603,1418 600,1419 596,1420 592,1422 588,1424 583,1426 575,1417 567,1409 558,1402 548,1397 538,1393 528,1389 517,1387 506,1385 495,1384 484,1383 472,1382 461,1382 450,1381 439,1381 428,1380 417,1378 535,1360 541,1367 546,1374 552,1381 557,1387 564,1394 571,1399 579,1403 588,1406 602,1406 614,1401 624,1395 632,1385 639,1375 645,1363 650,1351 655,1340 666,1339 676,1338 687,1336 697,1335 708,1333 718,1331 729,1330 740,1328 745,1342 752,1354 762,1364 774,1372 787,1380 800,1387 814,1394 827,1401 840,1406 853,1412 866,1417 880,1422 893,1426 906,1430 920,1434 933,1437 937,1437 941,1436 945,1435 949,1433 952,1431 956,1430 960,1430 963,1430 970,1434 977,1437 984,1440 991,1443 998,1446 1004,1450 1009,1454 1014,1460 1018,1481 1023,1501 1027,1521 1028,1541 1032,1546 1036,1549 1042,1551 1048,1550 1159,1526 1166,1523 1173,1521 1180,1518 1187,1516 1194,1513 1201,1511 1207,1507 1213,1503 1218,1506 1220,1511 1222,1515 1227,1518 1239,1514 1249,1508 1259,1502 1268,1494 1277,1486 1286,1478 1295,1470 1305,1463 1319,1454 1334,1446 1349,1439 1365,1434 1382,1430 1398,1426 1416,1423 1433,1421 1433,1412 1428,1405 1421,1399 1416,1392 1362,1357 1229,1295 1194,1273 1183,1288 1171,1298 1156,1304 1140,1308 1123,1309 1106,1309 1089,1308 1072,1308 1061,1308 1050,1308 1038,1309 1027,1309 1016,1310 1005,1311 994,1313 983,1314 978,1322 980,1331 983,1340 985,1349 981,1349 975,1343 969,1337 963,1330 957,1324 951,1318 945,1312 939,1306 934,1299 941,1298 960,1295 990,1290 1028,1284 1074,1277 1125,1269 1180,1261 1236,1252 1293,1243 1348,1235 1400,1227 1447,1219 1487,1213 1518,1208 1539,1205 1548,1203 1545,1209 1540,1212 1534,1215 1528,1216 1520,1218 1512,1219 1505,1221 1498,1224 1488,1223 1478,1223 1468,1222 1458,1222 1448,1222 1438,1223 1428,1224 1418,1226 1407,1234 1396,1242 1386,1249 1375,1257 1364,1266 1355,1275 1345,1285 1337,1295 1343,1301 1350,1303 1358,1304 1365,1302 1373,1299 1381,1296 1389,1292 1396,1289 1396,1288 1397,1287 1399,1287 1400,1287 1402,1295 1405,1303 1410,1310 1418,1314 1425,1318 1433,1320 1442,1321 1451,1323 1458,1325 1465,1328 1469,1334 1470,1342 1474,1373 1478,1406 1484,1439 1492,1470 1504,1473 1515,1473 1527,1470 1539,1466 1551,1461 1563,1456 1575,1453 1587,1451 1628,1449 1662,1445 1689,1439 1710,1433 1725,1427 1736,1421 1741,1417 1743,1416 1737,1401 1730,1387 1724,1372 1716,1358 1728,1353 1739,1348 1750,1343 1762,1337 1773,1332 1784,1326 1794,1320 1805,1314 1794,1306 1783,1299 1772,1291 1762,1283 1751,1275 1740,1267 1730,1259 1719,1250 1742,1239 1938,1394 744,1720 238,1855 233,1846 225,1829 213,1806 198,1778 181,1746 163,1711 144,1674 124,1636 105,1599 86,1563 69,1529 53,1499 40,1474 30,1455 23,1442 21,1438 78,1431"/>
<polygon class="pen1 brush18" points="1727,1018 1727,1030 1726,1042 1724,1054 1720,1065 1715,1059 1710,1052 1706,1045 1702,1038 1698,1030 1695,1023 1691,1016 1687,1009 1692,1009 1697,1009 1702,1010 1708,1010 1713,1012 1718,1013 1723,1015 1727,1018"/>
<polygon class="pen1 brush18" points="224,1870 222,1909 217,1900 209,1883 198,1860 185,1832 169,1800 153,1765 136,1728 118,1690 101,1653 84,1617 68,1583 54,1553 43,1528 34,1509 28,1496 26,1492 21,1460 26,1470 34,1488 45,1511 59,1539 75,1571 92,1605 110,1641 128,1678 146,1715 164,1750 180,1782 194,1811 207,1835 216,1854 222,1866 224,1870"/>
<polygon class="pen1 brush15" points="397,1383 393,1388 389,1395 386,1401 382,1407 378,1413 374,1417 368,1420 362,1420 357,1418 361,1413 365,1405 368,1396 371,1387 374,1380 380,1376 387,1377 397,1383"/>
<polygon class="pen1 brush12" points="564,1435 570,1441 577,1447 584,1452 592,1457 586,1458 580,1457 573,1455 567,1453 566,1449 563,1444 559,1440 555,1437 551,1444 546,1449 540,1454 535,1459 536,1456 538,1448 536,1442 528,1441 523,1449 519,1459 514,1468 506,1474 506,1465 510,1455 511,1446 505,1441 497,1447 493,1454 492,1463 492,1471 491,1479 488,1485 482,1489 470,1489 466,1488 461,1489 456,1489 451,1490 446,1490 442,1489 440,1486 438,1482 446,1478 456,1481 463,1481 465,1471 464,1466 467,1462 469,1458 468,1453 457,1453 445,1452 434,1451 422,1449 411,1446 401,1441 391,1435 382,1427 405,1391 425,1397 446,1399 468,1399 489,1399 510,1401 530,1406 548,1417 564,1435"/>
<polygon class="pen1 brush6" points="431,1498 439,1499 448,1499 456,1500 464,1500 472,1500 481,1500 488,1499 496,1498 503,1496 510,1493 515,1488 521,1484 526,1479 531,1476 538,1473 545,1472 548,1468 551,1466 555,1466 560,1468 564,1470 568,1472 573,1474 577,1474 581,1475 586,1475 590,1474 595,1473 600,1472 604,1471 609,1469 613,1467 616,1463 616,1458 614,1453 611,1448 608,1446 605,1443 601,1440 597,1438 598,1436 600,1436 602,1435 604,1434 616,1448 632,1459 649,1467 666,1474 683,1482 697,1492 707,1506 712,1526 716,1534 720,1541 725,1548 732,1554 738,1559 746,1564 754,1568 763,1572 562,1644 557,1647 552,1648 547,1646 543,1644 539,1640 534,1636 530,1633 526,1630 517,1621 511,1610 507,1599 503,1587 498,1576 491,1565 482,1557 469,1551 368,1493 423,1475 422,1480 423,1486 425,1493 431,1498"/>
<polygon class="pen1 brush6" points="1133,1321 1119,1330 1105,1338 1090,1345 1074,1351 1058,1356 1042,1358 1025,1357 1009,1354 1005,1349 1002,1342 998,1336 994,1330 1011,1330 1029,1330 1046,1330 1064,1328 1081,1327 1098,1325 1116,1323 1133,1321"/>
<polygon class="pen1 brush6" points="1203,1293 1214,1304 1226,1313 1239,1321 1252,1328 1265,1334 1279,1340 1293,1345 1307,1350 1321,1355 1335,1360 1349,1365 1362,1372 1375,1379 1387,1386 1399,1396 1410,1406 1397,1405 1384,1406 1372,1408 1360,1412 1348,1416 1337,1421 1326,1427 1316,1434 1305,1441 1295,1449 1285,1457 1275,1465 1265,1473 1256,1481 1246,1489 1237,1497 1225,1487 1213,1477 1200,1467 1187,1456 1174,1447 1161,1437 1147,1428 1133,1419 1139,1414 1144,1408 1148,1401 1149,1392 1106,1361 1118,1352 1130,1343 1142,1335 1155,1327 1167,1318 1179,1310 1191,1302 1203,1293"/>
<polygon class="pen1 brush13" points="1082,1371 1089,1373 1095,1376 1101,1379 1107,1384 1113,1388 1119,1393 1125,1397 1131,1400 1124,1402 1117,1403 1110,1402 1103,1400 1096,1398 1089,1398 1082,1398 1076,1401 1078,1402 1083,1406 1090,1410 1099,1416 1109,1423 1119,1429 1129,1434 1137,1439 1131,1438 1125,1438 1119,1437 1113,1437 1106,1437 1100,1437 1094,1438 1088,1439 1089,1440 1093,1441 1099,1443 1107,1445 1116,1448 1124,1450 1133,1453 1140,1455 1136,1455 1131,1456 1126,1456 1121,1456 1115,1457 1110,1459 1105,1460 1101,1463 1112,1470 1109,1471 1106,1472 1101,1473 1096,1473 1091,1473 1086,1473 1081,1473 1076,1472 1061,1464 1046,1455 1031,1446 1015,1437 1000,1428 984,1420 968,1412 951,1405 949,1395 950,1385 952,1373 954,1362 970,1366 986,1369 1001,1371 1017,1372 1033,1373 1049,1373 1066,1372 1082,1371"/>
<polygon class="pen1 brush6" points="390,1527 405,1537 422,1546 439,1554 456,1563 471,1573 483,1584 492,1599 496,1618 501,1626 507,1633 514,1640 521,1647 528,1653 536,1658 545,1662 555,1665 566,1661 576,1657 587,1653 598,1649 609,1645 619,1641 630,1637 640,1634 644,1640 647,1647 649,1655 652,1661 630,1667 399,1710 376,1600 366,1591 358,1583 351,1575 345,1566 340,1558 336,1550 333,1543 330,1535 390,1527"/>
<polygon class="pen1 brush16" points="1526,1238 1563,1230 1589,1258 1580,1260 1571,1262 1563,1265 1555,1267 1548,1271 1542,1276 1537,1282 1534,1291 1528,1296 1521,1299 1513,1300 1506,1299 1499,1293 1491,1292 1484,1291 1477,1286 1475,1286 1474,1288 1473,1290 1472,1292 1472,1296 1472,1300 1473,1304 1475,1307 1485,1313 1480,1314 1475,1315 1469,1315 1463,1314 1460,1305 1459,1296 1457,1289 1448,1288 1446,1292 1446,1297 1446,1301 1446,1306 1443,1306 1440,1305 1437,1303 1435,1301 1432,1294 1432,1286 1431,1280 1423,1277 1420,1283 1420,1288 1421,1294 1421,1300 1413,1291 1412,1278 1409,1268 1400,1263 1398,1269 1394,1274 1389,1278 1383,1281 1377,1284 1370,1286 1363,1287 1357,1289 1370,1275 1385,1263 1401,1251 1417,1242 1434,1236 1452,1233 1470,1234 1489,1240 1526,1238"/>
<polygon class="pen1 brush6" points="1599,1287 1604,1290 1608,1291 1613,1291 1617,1290 1622,1289 1626,1288 1631,1286 1636,1285 1644,1282 1653,1279 1661,1276 1669,1272 1677,1269 1685,1265 1693,1262 1701,1259 1710,1266 1718,1274 1727,1282 1736,1289 1745,1297 1755,1303 1765,1309 1775,1314 1614,1378 1579,1395 1572,1386 1566,1377 1560,1367 1554,1358 1548,1348 1541,1339 1535,1330 1527,1322 1526,1316 1531,1312 1538,1309 1543,1305 1546,1297 1550,1291 1556,1287 1562,1284 1570,1283 1577,1281 1585,1279 1592,1277 1599,1287"/>
<polygon class="pen1 brush6" points="1574,1415 1590,1408 1605,1401 1620,1394 1635,1386 1650,1380 1666,1373 1683,1368 1700,1364 1708,1374 1714,1386 1720,1398 1726,1411 1716,1417 1706,1421 1696,1425 1686,1427 1676,1429 1666,1430 1656,1431 1646,1431 1636,1432 1625,1432 1615,1432 1605,1432 1595,1432 1585,1433 1574,1435 1564,1437 1509,1454 1502,1427 1494,1385 1488,1347 1486,1330 1490,1328 1495,1325 1499,1323 1504,1321 1574,1415"/>
<polygon class="pen1 brush6" points="1089,1490 1092,1489 1101,1486 1114,1481 1129,1476 1144,1471 1157,1466 1167,1463 1172,1462 1201,1489 1184,1498 1166,1506 1146,1511 1127,1516 1107,1520 1086,1524 1066,1528 1047,1533 1044,1516 1041,1499 1037,1482 1031,1466 1038,1470 1045,1474 1052,1478 1059,1481 1067,1485 1074,1488 1082,1489 1089,1490"/>
<polygon class="pen1 brush18" points="751,1742 1299,1592 1306,1590 1326,1584 1358,1575 1398,1564 1446,1550 1500,1535 1558,1519 1618,1502 1677,1486 1735,1469 1790,1454 1839,1441 1881,1430 1914,1421 1936,1416 1945,1414 1942,1424 1940,1434 1938,1444 1933,1453 1660,1530 771,1785 239,1931 244,1876 592,1785 751,1742"/>
</g>
</svg>