<?xml version="1.0" encoding="utf-8"?>
<!DOCTYPE svg PUBLIC "-//W3C//DTD SVG 1.0//EN" "http://www.w3.org/TR/2001/REC-SVG-20010904/DTD/svg10.dtd">
<svg aria-labelledby="title desc" fill-rule="evenodd" height="1.992in" preserveAspectRatio="none" stroke-linecap="round" viewBox="0 0 1883 1992" width="1.883in" xmlns="http://www.w3.org/2000/svg" xmlns:xlink="http://www.w3.org/1999/xlink"><title>leisure,occupations,persons,photographers,photography,visual arts,women</title><desc>Original keywords: leisure,occupations,persons,photographers,photography,visual arts,women. This clipart was ripped from the Microsoft website, then uploaded to https://archive.org/details/MS_Clipart_Collection. (The original WMF file can be found within that item, under the folder MC900216666). From there, it was then converted by Trumad to svg using https://github.com/hidekatsu-izuno/wmf2svg in a bulk operation. All the converted files can be found at https://archive.org/details/MS_Clipart_Collection_SVG</desc>
<style type="text/css">
.brush0 { fill: rgb(255,255,255); }
.pen0 { stroke: rgb(0,0,0); stroke-width: 1; stroke-linejoin: round; }
.brush1 { fill: none; }
.pen1 { stroke: none; }
.brush2 { fill: rgb(145,22,255); }
.brush3 { fill: rgb(38,224,242); }
.brush4 { fill: rgb(193,147,102); }
.brush5 { fill: rgb(191,191,191); }
.brush6 { fill: rgb(153,153,153); }
.brush7 { fill: rgb(102,102,102); }
.brush8 { fill: rgb(204,204,204); }
.brush9 { fill: rgb(242,191,178); }
.brush10 { fill: rgb(216,216,216); }
.brush11 { fill: rgb(140,140,140); }
.brush12 { fill: rgb(0,0,0); }
</style>
<g>
<polygon class="pen1 brush2" points="1879,1991 1880,1984 1881,1968 1881,1945 1879,1921 1877,1908 1875,1893 1872,1877 1868,1858 1863,1839 1858,1818 1852,1798 1846,1778 1837,1751 1827,1724 1815,1696 1802,1669 1786,1643 1767,1621 1746,1602 1721,1587 1709,1589 1686,1598 1652,1614 1611,1636 1563,1663 1511,1693 1456,1725 1399,1759 1342,1792 1288,1825 1237,1856 1192,1884 1154,1907 1124,1925 1106,1937 1099,1941 1084,1991 1879,1991"/>
<polygon class="pen1 brush3" points="811,788 794,823 711,805 171,896 168,906 159,931 147,969 133,1014 118,1063 106,1110 97,1151 94,1183 95,1196 98,1211 102,1226 109,1242 116,1259 125,1275 136,1292 147,1308 160,1324 174,1338 188,1351 203,1363 219,1373 235,1381 252,1386 269,1389 278,1388 294,1383 317,1376 345,1366 377,1355 412,1342 449,1328 486,1314 524,1300 560,1286 594,1273 624,1262 649,1252 668,1245 681,1240 685,1238 734,1455 790,1508 791,1512 796,1524 802,1543 810,1567 821,1595 832,1627 845,1662 859,1698 873,1734 887,1769 901,1802 915,1832 929,1859 941,1880 952,1895 961,1903 979,1909 997,1913 1016,1915 1033,1916 1048,1915 1059,1914 1067,1913 1070,1913 1101,1966 1103,1966 1107,1966 1114,1965 1123,1964 1135,1963 1148,1962 1162,1961 1178,1959 1194,1958 1211,1956 1228,1954 1245,1952 1262,1951 1278,1949 1293,1947 1307,1945 1331,1941 1351,1936 1369,1930 1385,1923 1400,1914 1416,1903 1434,1890 1454,1875 1475,1858 1493,1842 1510,1826 1526,1810 1541,1794 1557,1777 1574,1758 1594,1738 1614,1719 1632,1702 1648,1688 1664,1674 1678,1662 1692,1650 1706,1637 1720,1623 1730,1609 1732,1597 1729,1586 1722,1577 1714,1570 1705,1564 1699,1561 1696,1560 1699,1558 1705,1547 1713,1517 1720,1462 1718,1429 1710,1401 1696,1376 1680,1354 1663,1334 1647,1316 1635,1298 1629,1280 1626,1259 1622,1235 1617,1208 1612,1180 1607,1153 1603,1128 1600,1105 1598,1088 1594,1067 1587,1036 1576,997 1564,954 1549,911 1534,870 1518,836 1503,812 1495,803 1484,793 1471,784 1457,774 1442,765 1427,756 1410,748 1394,740 1379,732 1364,725 1350,719 1338,714 1328,710 1321,707 1316,705 1314,704 811,788"/>
<polygon class="pen1 brush4" points="881,71 853,75 826,81 801,88 778,96 758,104 743,110 733,114 730,116 728,116 722,118 713,122 702,127 688,136 673,148 657,165 640,186 632,200 628,217 627,235 628,253 631,272 636,289 643,305 650,319 662,335 674,349 685,360 695,368 704,374 710,379 714,381 716,382 1220,697 1222,698 1228,699 1237,702 1249,704 1262,705 1276,705 1290,704 1304,700 1316,694 1328,688 1337,682 1346,674 1352,667 1357,658 1361,650 1363,641 1363,631 1359,620 1354,609 1347,598 1340,589 1334,581 1330,576 1328,574 1346,490 1350,483 1358,464 1366,437 1370,406 1367,389 1359,370 1347,351 1334,333 1320,316 1308,303 1300,294 1297,291 1335,259 1337,256 1342,248 1348,235 1354,219 1359,201 1360,181 1358,161 1349,141 1336,123 1321,107 1304,94 1288,84 1274,76 1262,71 1254,68 1251,67 1251,64 1250,57 1246,46 1236,33 1233,30 1230,26 1227,23 1224,20 1220,17 1216,14 1211,11 1205,8 1199,5 1192,3 1185,2 1179,1 1172,1 1166,1 1161,1 1156,2 1146,5 1138,8 1130,12 1124,16 1118,20 1113,23 1109,23 1105,22 1101,20 1097,18 1093,16 1088,15 1083,15 1078,15 1073,15 1067,16 1063,17 1059,18 1055,19 1051,21 1047,22 1043,24 1039,27 1035,29 1026,36 1019,43 1015,51 1012,58 1010,65 1007,71 1004,77 1000,81 994,83 986,83 975,81 963,77 947,74 928,71 906,70 881,71"/>
<polygon class="pen1 brush5" points="474,1124 236,1991 348,1991 451,1576 390,1991 446,1991 591,1162 772,1992 883,1992 675,1124 474,1124"/>
<polygon class="pen1 brush6" points="449,836 448,840 446,851 448,866 456,884 466,896 473,904 478,909 480,910 480,1006 449,1044 448,1046 445,1054 443,1070 444,1097 450,1123 460,1140 468,1148 472,1151 475,1152 484,1153 496,1155 512,1157 529,1160 547,1163 563,1165 578,1167 593,1167 612,1166 632,1163 652,1160 670,1157 685,1154 695,1152 699,1151 701,868 449,836"/>
<polygon class="pen1 brush7" points="206,644 230,658 423,595 605,595 713,620 737,829 598,882 458,843 272,877 250,901 113,920 111,920 104,920 94,920 83,918 69,915 56,908 43,899 31,885 18,862 10,840 6,813 3,777 4,756 8,736 14,716 23,698 34,682 47,667 61,656 75,648 206,644"/>
<polygon class="pen1 brush8" points="643,629 654,628 663,627 672,624 680,620 686,615 691,610 694,604 695,597 694,590 691,584 686,579 680,574 672,570 663,567 654,566 643,565 632,566 623,567 614,570 606,574 600,579 595,584 592,590 591,597 592,604 595,610 600,615 606,620 614,624 623,627 632,628 643,629"/>
<polygon class="pen1 brush9" points="238,577 231,596 227,626 225,653 225,665 332,667 335,635 338,635 346,636 357,637 370,638 385,639 398,639 410,638 419,637 427,629 428,618 424,607 422,602 423,603 427,606 431,609 438,614 445,618 452,621 460,623 467,623 479,620 488,616 493,612 495,611 497,614 503,619 511,624 523,625 535,622 543,617 549,613 551,611 553,611 557,612 563,614 570,615 577,616 584,616 589,615 592,612 594,595 594,566 591,536 586,516 581,508 577,504 571,502 560,500 552,499 543,500 532,502 521,505 511,508 503,511 497,513 495,514 493,512 487,508 479,504 470,502 464,502 456,503 446,506 436,508 427,511 419,514 413,515 411,516 410,515 407,514 403,512 398,509 392,507 384,505 377,504 369,504 361,506 353,511 345,517 338,524 332,531 327,536 324,540 323,542 320,543 312,545 301,548 287,552 273,557 259,563 247,570 238,577"/>
<polygon class="pen1 brush9" points="227,896 231,911 240,944 249,980 255,1001 258,1007 264,1016 272,1026 281,1038 289,1049 297,1058 302,1065 304,1067 363,1036 385,923 469,831 279,836 227,896"/>
<polygon class="pen1 brush9" points="587,878 566,885 565,886 562,889 558,893 554,898 552,904 551,910 554,917 561,924 570,930 578,934 586,938 594,941 599,943 604,944 607,945 608,945 606,945 600,946 592,947 583,948 573,949 565,950 558,952 555,954 552,961 552,971 558,983 573,996 584,1002 596,1008 609,1013 621,1017 631,1021 639,1023 645,1024 647,1025 651,1027 660,1034 669,1044 675,1057 678,1075 681,1100 687,1126 696,1146 701,1154 707,1162 714,1169 721,1176 730,1183 738,1189 748,1194 758,1198 770,1204 785,1213 800,1224 816,1236 830,1247 842,1257 850,1264 853,1266 932,1151 931,1149 927,1144 921,1136 914,1126 906,1115 898,1104 891,1093 884,1083 874,1060 867,1030 861,995 856,957 853,925 853,905 853,895 853,892 748,780 723,769 718,769 706,768 689,767 670,766 650,766 631,767 618,769 611,773 608,781 609,790 613,798 619,806 625,812 630,817 634,821 636,822 634,822 628,821 620,820 610,820 600,820 590,822 582,826 577,833 574,849 578,863 584,874 587,878"/>
<polygon class="pen1 brush9" points="832,845 843,853 856,861 872,868 889,875 907,882 924,887 939,890 953,891 966,901 977,927 985,964 992,1006 999,1047 1006,1082 1016,1105 1028,1109 1040,1103 1052,1095 1064,1085 1076,1075 1088,1063 1099,1049 1111,1035 1122,1019 1133,1001 1144,983 1155,964 1166,943 1177,922 1188,899 1198,875 1209,851 1221,811 1225,774 1223,738 1217,705 1211,673 1206,644 1206,617 1213,592 1225,559 1230,528 1230,499 1224,474 1216,453 1205,437 1193,428 1181,425 1170,430 1160,439 1151,452 1142,464 1133,474 1123,480 1113,478 1101,467 1093,447 1090,418 1093,385 1103,354 1106,345 1105,339 1103,336 1098,333 1092,332 1084,331 1077,329 1070,325 1060,316 1053,306 1048,296 1045,286 1042,277 1039,269 1035,264 1029,260 1017,258 1003,260 987,263 971,268 954,273 938,277 923,281 911,282 890,279 874,272 861,263 850,253 840,245 829,241 815,241 797,249 757,275 728,298 709,320 699,342 694,368 693,398 693,434 694,478 696,539 701,594 711,646 724,693 743,736 767,775 796,812 832,845"/>
<polygon class="pen1 brush10" points="103,893 110,890 118,883 126,872 133,858 138,842 142,823 144,804 142,785 138,766 133,748 127,733 122,719 115,708 109,700 102,696 95,695 85,698 77,704 69,713 63,723 58,736 55,750 54,767 54,785 57,808 61,829 67,848 73,863 80,876 88,885 96,891 103,893"/>
<polygon class="pen1 brush11" points="276,752 285,806 469,784 470,779 472,766 468,752 455,740 276,752"/>
<polygon class="pen1 brush5" points="329,615 327,657 630,714 724,681 717,633 630,673 329,615"/>
<polygon class="pen1 brush12" points="683,322 678,315 672,308 666,301 660,294 655,287 651,279 648,271 648,262 652,238 661,216 673,196 689,177 707,161 726,147 747,135 769,125 778,124 787,123 796,121 806,120 815,120 824,120 834,122 843,125 857,112 872,103 888,96 906,92 924,90 942,91 961,94 979,99 985,101 991,103 996,106 1002,109 1007,112 1012,115 1018,118 1023,120 1022,103 1026,83 1033,65 1044,50 1051,43 1057,39 1065,37 1072,36 1079,36 1087,37 1094,38 1102,40 1108,41 1114,42 1119,42 1125,42 1130,40 1135,38 1140,34 1145,28 1159,22 1172,20 1183,20 1194,22 1205,26 1214,32 1223,38 1231,45 1239,50 1244,58 1247,66 1249,74 1249,79 1251,83 1255,85 1259,87 1264,89 1269,91 1273,93 1277,96 1290,107 1303,119 1314,132 1323,146 1330,162 1335,178 1337,195 1336,212 1334,221 1331,229 1327,237 1322,244 1315,250 1308,256 1301,260 1292,262 1287,262 1280,262 1274,261 1267,259 1261,256 1256,252 1253,248 1252,242 1252,233 1255,225 1259,216 1264,208 1264,215 1265,223 1268,230 1272,236 1281,239 1287,236 1292,229 1296,222 1300,208 1301,193 1299,178 1294,163 1285,149 1272,136 1254,124 1231,114 1227,106 1224,96 1222,86 1218,77 1212,69 1204,63 1193,59 1177,59 1171,59 1166,60 1161,61 1155,63 1150,65 1145,67 1141,70 1136,74 1131,73 1127,71 1123,68 1120,64 1116,62 1111,60 1107,60 1101,61 1087,62 1076,65 1068,69 1063,75 1060,81 1059,89 1059,98 1061,107 1065,113 1071,118 1078,122 1085,125 1092,127 1098,128 1102,129 1103,129 1093,135 1084,139 1074,141 1064,142 1053,142 1043,141 1032,140 1021,138 1010,135 999,133 988,130 977,129 966,127 956,127 945,127 934,129 926,131 917,133 909,135 900,137 892,140 884,144 877,149 870,156 857,156 844,157 831,158 818,161 805,164 792,168 779,173 767,179 756,185 745,192 734,200 725,209 716,219 708,230 702,241 696,253 695,264 697,276 700,288 707,297 683,322"/>
<polygon class="pen1 brush12" points="1625,1587 1633,1574 1640,1561 1645,1549 1649,1539 1652,1530 1654,1521 1656,1515 1658,1509 1666,1477 1662,1446 1649,1417 1632,1389 1612,1361 1594,1334 1579,1305 1572,1276 1570,1267 1568,1259 1566,1250 1561,1242 1554,1257 1545,1272 1536,1283 1532,1285 1536,1236 1537,1188 1534,1141 1527,1095 1518,1049 1507,1004 1494,959 1479,915 1472,900 1464,886 1455,873 1445,860 1435,848 1424,836 1412,826 1400,815 1388,806 1375,797 1361,789 1347,782 1333,775 1319,769 1305,763 1290,758 1287,768 1285,778 1282,788 1275,795 1270,786 1264,764 1256,738 1246,717 1242,767 1235,817 1225,865 1212,912 1194,957 1173,1000 1147,1041 1117,1078 1106,1088 1096,1098 1085,1109 1073,1118 1061,1124 1048,1127 1034,1126 1019,1118 1000,1097 984,1074 973,1049 966,1022 962,995 962,966 964,938 969,909 971,915 975,934 980,961 987,992 996,1024 1007,1053 1021,1075 1038,1086 1053,1079 1066,1071 1077,1062 1088,1051 1097,1040 1106,1028 1114,1016 1123,1003 1149,964 1170,921 1186,874 1198,826 1205,777 1209,727 1208,678 1204,630 1208,611 1216,595 1227,581 1240,568 1254,556 1267,543 1278,528 1285,512 1289,496 1289,478 1292,462 1305,451 1309,432 1308,414 1302,396 1292,379 1281,363 1269,346 1257,329 1248,312 1238,298 1227,284 1216,270 1207,255 1199,240 1193,224 1191,208 1192,190 1189,179 1185,171 1180,164 1173,157 1165,151 1156,145 1144,139 1130,131 1144,131 1156,133 1168,137 1178,143 1188,150 1197,158 1205,167 1214,176 1218,185 1220,196 1221,206 1222,216 1243,266 1245,267 1250,270 1258,276 1268,285 1280,297 1293,313 1307,333 1320,357 1331,381 1339,401 1344,417 1346,431 1345,444 1341,456 1335,469 1327,483 1328,511 1318,534 1302,553 1283,570 1262,587 1244,605 1232,626 1229,652 1233,656 1236,659 1239,663 1243,666 1247,668 1252,670 1258,671 1266,670 1272,669 1279,667 1285,665 1292,662 1298,659 1303,655 1308,650 1312,644 1315,635 1315,625 1312,617 1306,610 1299,607 1292,608 1285,611 1280,615 1280,624 1284,632 1289,638 1293,644 1286,645 1279,645 1272,643 1267,638 1262,630 1261,621 1262,611 1264,602 1267,596 1273,591 1279,587 1286,584 1292,584 1298,584 1303,585 1309,587 1314,589 1319,592 1323,595 1328,598 1338,612 1344,627 1344,643 1340,659 1335,664 1326,670 1314,676 1301,681 1289,685 1278,689 1271,691 1268,692 1278,699 1288,706 1299,712 1310,718 1321,723 1332,728 1344,733 1355,738 1366,743 1378,748 1389,754 1400,759 1410,766 1421,772 1431,780 1440,788 1480,826 1512,869 1535,915 1552,964 1564,1015 1571,1067 1575,1120 1577,1173 1585,1204 1595,1234 1606,1263 1619,1293 1634,1322 1650,1350 1668,1378 1688,1405 1696,1438 1701,1478 1698,1519 1686,1552 1625,1587"/>
<polygon class="pen1 brush12" points="698,434 700,406 702,374 708,341 721,310 723,305 733,293 747,278 765,262 785,246 806,234 825,227 842,228 850,234 857,239 865,245 873,250 881,255 890,258 900,259 911,258 921,255 931,253 942,250 953,247 965,244 977,242 989,240 1000,240 1012,240 1023,241 1033,244 1043,248 1052,254 1060,262 1067,271 1073,283 1073,293 1069,304 1069,313 1081,315 1089,316 1097,317 1105,319 1113,321 1120,324 1127,328 1132,333 1137,340 1141,348 1144,356 1144,364 1139,372 1133,380 1126,390 1119,402 1112,415 1107,430 1104,446 1103,463 1106,480 1099,479 1093,476 1088,472 1083,467 1074,454 1069,440 1069,426 1072,411 1077,397 1082,382 1087,368 1090,354 1084,349 1077,347 1069,347 1061,347 1054,346 1047,344 1042,340 1038,332 1038,318 1039,304 1038,291 1031,279 1018,278 1005,278 992,279 979,282 966,286 953,289 940,293 928,297 915,300 902,302 890,303 877,302 865,299 852,294 840,287 828,276 818,276 806,280 791,286 777,294 763,303 751,312 743,320 740,328 735,354 734,382 735,409 737,436 769,446 793,464 809,489 820,520 827,553 831,587 833,620 835,650 828,625 821,602 815,582 809,563 804,547 798,532 793,518 788,506 783,498 778,492 772,487 765,483 758,481 750,478 742,477 734,475 735,507 737,541 742,574 749,606 717,588 710,560 707,530 706,501 704,473 698,472 692,471 686,471 679,472 672,439 698,434"/>
<polygon class="pen1 brush12" points="1225,470 1227,488 1228,507 1225,526 1221,545 1215,564 1207,581 1198,597 1187,612 1189,598 1197,562 1205,519 1206,484 1204,473 1201,464 1197,457 1192,451 1185,448 1178,446 1169,446 1159,448 1155,450 1151,454 1147,460 1142,466 1138,474 1134,481 1131,489 1128,496 1121,486 1120,468 1126,445 1140,420 1144,416 1150,412 1157,410 1165,409 1173,410 1182,411 1192,413 1201,417 1211,424 1218,435 1222,450 1225,470"/>
<polygon class="pen1 brush12" points="1006,473 992,471 980,466 969,460 959,453 948,447 937,443 923,442 907,445 901,449 896,455 891,461 887,467 884,474 880,482 875,490 870,498 868,486 868,473 869,460 870,448 872,442 874,436 878,431 884,426 889,423 896,420 902,418 909,417 926,419 943,424 960,432 975,441 988,450 998,460 1004,467 1006,473"/>
<polygon class="pen1 brush12" points="976,710 972,713 960,718 942,723 921,729 898,735 875,741 855,746 840,751 846,744 851,738 854,732 857,727 861,723 865,720 871,719 879,720 889,711 903,706 918,703 934,703 950,704 963,706 972,708 976,710"/>
<polygon class="pen1 brush12" points="955,730 951,741 946,752 940,761 933,769 923,776 913,780 900,782 886,781 882,780 878,779 873,776 869,774 865,770 861,767 858,762 856,758 873,754 887,750 899,747 910,744 920,741 931,738 942,734 955,730"/>
<polygon class="pen1 brush12" points="774,769 780,777 786,785 792,792 798,799 792,809 785,813 779,812 773,808 767,802 761,795 754,789 748,784 745,715 751,727 759,742 767,757 774,769 792,746 781,732 771,717 762,702 755,687 749,673 744,661 742,652 741,647 739,639 736,631 732,625 727,618 721,613 715,609 707,606 699,604 698,599 695,588 689,575 682,566 672,562 661,560 650,560 639,561 629,563 620,567 613,571 608,577 606,582 607,586 609,591 610,595 616,597 622,599 629,601 635,601 640,601 644,600 646,598 647,595 634,592 625,589 619,586 617,583 617,581 619,579 622,577 627,576 631,574 638,573 647,573 656,573 665,575 673,578 678,583 681,588 681,594 681,599 680,604 676,609 667,611 659,612 651,613 642,613 633,613 623,612 613,609 602,606 601,607 599,610 597,614 598,618 610,623 622,626 634,627 647,628 660,628 673,627 686,627 699,626 627,657 491,629 495,625 499,620 500,614 500,608 491,601 482,595 473,588 464,580 456,573 448,565 440,556 434,547 438,545 442,544 447,542 451,541 455,540 460,540 464,541 468,542 476,550 484,558 491,567 498,576 506,585 514,593 522,601 531,607 530,611 527,613 520,615 511,616 509,618 510,621 512,625 515,629 519,629 524,629 528,628 533,627 537,626 541,624 546,623 550,621 549,612 547,605 543,597 535,584 499,539 507,538 514,535 522,533 530,530 537,528 545,526 552,526 560,528 562,536 566,556 569,577 568,591 561,587 556,580 553,573 551,565 549,558 546,553 541,552 534,555 537,566 542,582 548,596 558,604 564,606 570,606 577,605 582,605 583,604 585,602 587,597 587,589 585,571 581,544 577,519 572,507 566,505 560,505 553,506 546,507 538,508 531,510 523,512 516,514 512,515 507,517 503,519 498,521 493,522 489,521 485,519 482,515 477,512 472,511 467,511 461,512 455,514 450,516 445,518 440,520 433,523 427,526 422,529 418,531 414,532 410,531 405,528 399,523 394,522 389,520 384,519 378,518 373,518 367,519 362,521 358,523 354,528 349,532 345,535 340,538 330,544 320,549 310,554 300,558 289,561 279,565 269,570 259,575 250,584 246,595 245,606 246,618 246,630 246,642 243,653 236,663 228,664 222,661 216,655 210,651 103,655 89,671 208,671 217,693 225,717 231,741 236,766 239,792 240,817 239,843 236,868 225,870 214,872 203,873 193,875 182,876 171,877 161,877 150,877 155,851 158,824 158,798 156,771 154,760 151,748 148,738 144,727 139,717 133,708 126,699 119,690 97,689 103,700 109,711 115,722 120,733 124,745 127,756 130,768 133,780 135,799 135,818 133,837 129,855 127,864 124,871 120,875 113,876 100,864 91,850 84,834 80,817 77,800 76,782 76,765 77,747 79,737 82,727 86,717 90,706 81,709 75,715 71,723 67,731 64,753 62,775 62,797 64,818 69,839 77,859 88,877 103,893 99,895 95,895 91,894 84,890 72,877 62,864 55,851 49,837 45,822 42,806 40,790 40,773 41,759 43,745 47,732 51,718 57,705 64,692 71,680 80,669 80,667 78,667 74,668 68,671 61,677 53,684 45,694 35,707 25,736 20,767 20,797 24,827 33,854 47,878 67,898 92,911 241,894 248,891 256,883 262,875 266,867 406,844 403,848 398,853 393,857 388,861 382,866 376,869 370,873 365,876 359,880 352,883 345,885 338,886 331,887 324,887 317,886 310,885 311,886 313,889 317,893 322,897 328,902 334,906 340,908 346,909 340,939 337,969 337,999 342,1027 337,1031 332,1034 327,1037 322,1038 317,1039 311,1039 306,1038 300,1036 287,1022 276,1007 268,992 262,975 257,959 252,942 247,925 241,909 232,912 228,920 228,931 229,942 233,959 238,976 244,992 251,1009 258,1025 266,1042 275,1057 285,1073 296,1080 308,1083 319,1082 331,1078 341,1072 352,1065 361,1056 370,1048 371,1077 371,1107 371,1136 369,1166 368,1183 368,1199 367,1216 365,1233 360,1249 350,1266 334,1284 311,1301 313,1303 316,1304 319,1305 324,1305 328,1304 334,1302 339,1300 345,1298 379,1275 401,1249 413,1220 418,1189 418,1157 415,1125 410,1093 407,1063 411,1060 420,1053 434,1043 449,1029 464,1015 475,999 482,983 482,969 480,970 474,973 466,978 456,984 445,991 434,998 423,1004 414,1010 416,989 415,967 411,945 406,924 404,925 400,931 396,940 391,952 386,965 380,978 373,990 366,999 366,976 368,953 371,930 374,907 386,898 397,889 407,880 416,870 425,861 433,851 442,840 451,830 466,873 470,881 476,887 482,892 488,898 491,924 492,951 491,979 488,1008 484,1013 479,1019 474,1026 468,1032 463,1038 458,1043 454,1046 452,1047 451,1060 449,1074 449,1087 451,1100 454,1113 459,1124 467,1134 479,1142 255,1991 284,1992 507,1148 514,1150 521,1151 529,1152 535,1156 316,1991 340,1991 462,1525 383,1992 403,1992 553,1154 564,1155 556,1202 540,1303 517,1437 492,1588 467,1738 446,1867 431,1958 425,1992 446,1992 592,1162 598,1156 602,1172 609,1204 620,1249 632,1305 647,1369 662,1439 679,1514 696,1590 713,1666 729,1739 744,1807 757,1867 769,1919 777,1958 783,1983 785,1992 810,1991 623,1156 628,1157 633,1156 639,1155 644,1154 649,1154 653,1155 656,1159 657,1165 839,1992 868,1991 677,1142 671,1138 667,1134 662,1131 656,1126 642,1128 629,1129 614,1130 600,1129 586,1128 572,1128 558,1127 544,1127 535,1125 526,1123 517,1122 508,1120 500,1117 493,1113 486,1109 481,1102 480,1090 480,1077 481,1064 486,1053 490,1058 495,1061 500,1064 506,1066 511,1068 517,1070 523,1072 529,1074 551,1078 571,1082 589,1085 607,1086 624,1086 640,1083 656,1079 672,1071 675,1068 675,1064 673,1060 670,1057 657,1060 644,1062 632,1063 621,1065 610,1066 599,1066 588,1066 578,1065 568,1064 558,1063 549,1060 540,1058 531,1055 522,1051 513,1047 504,1042 504,1037 507,1033 511,1031 514,1028 529,1032 545,1035 561,1037 578,1038 594,1039 610,1039 626,1038 640,1036 640,1033 641,1030 640,1027 638,1024 624,1025 609,1026 594,1026 579,1025 563,1023 549,1020 535,1014 522,1007 522,983 521,959 520,934 521,909 549,908 548,900 544,894 538,890 530,888 521,885 512,883 505,878 500,872 498,866 497,859 497,853 499,847 506,849 513,851 520,853 528,855 535,856 542,858 550,859 557,861 561,858 559,849 555,843 548,838 540,835 530,833 521,830 512,827 504,823 498,821 492,819 487,817 482,814 484,812 486,810 487,807 488,804 487,800 483,798 478,797 474,796 267,825 265,791 258,757 249,725 240,692 446,685 455,693 463,705 470,721 477,737 483,752 488,765 491,774 493,776 494,752 494,728 489,705 480,683 476,679 472,676 468,672 464,669 459,666 455,663 450,661 445,659 441,658 434,658 425,657 414,657 402,658 388,658 373,658 358,659 343,659 328,659 314,660 301,660 289,660 279,660 271,660 265,659 268,641 269,623 273,606 281,591 290,587 300,583 310,580 319,577 329,574 339,571 349,568 359,566 401,615 396,617 391,618 385,619 379,618 374,617 368,616 362,614 357,613 350,607 345,598 339,593 329,596 328,602 325,607 321,609 316,611 310,613 305,614 300,617 296,620 298,624 301,627 305,627 310,627 314,626 319,625 323,625 327,625 323,651 331,650 342,650 355,648 369,647 383,645 396,643 407,641 415,638 418,628 419,621 419,615 418,605 411,600 405,594 399,588 393,581 387,574 381,567 376,559 370,552 367,550 364,550 360,549 358,545 362,543 366,541 370,539 374,538 378,537 382,536 387,536 391,536 470,609 465,610 460,610 456,608 452,607 448,605 444,604 440,605 436,608 437,611 440,615 444,621 450,628 456,636 461,645 465,653 468,661 471,660 473,656 474,650 479,646 608,676 611,682 612,688 613,695 612,701 506,678 503,679 500,681 498,684 498,687 602,713 610,716 615,721 617,729 618,737 618,746 620,753 625,759 634,761 640,753 642,743 643,733 641,723 649,719 657,714 665,710 673,706 681,701 689,696 697,691 705,686 703,685 698,686 690,688 681,691 671,694 660,698 650,702 642,705 641,701 640,692 640,682 642,675 717,643 717,658 718,695 719,738 719,774 708,774 697,774 687,773 676,773 666,772 655,771 644,770 632,768 626,771 621,774 618,779 619,786 623,793 628,800 634,806 640,811 647,815 654,819 661,823 668,827 612,834 608,836 602,838 597,840 591,842 586,845 583,848 581,854 581,861 583,867 588,872 593,877 598,882 591,884 585,885 579,887 575,892 581,893 588,894 596,894 604,893 612,893 618,893 622,892 624,892 630,892 636,892 643,893 649,893 656,894 662,895 669,896 675,897 679,901 684,905 691,909 699,914 707,918 715,922 722,925 727,926 723,919 718,914 714,909 709,905 705,900 701,895 697,890 693,884 684,877 674,872 663,869 652,867 640,865 628,863 618,860 608,856 613,855 620,853 629,852 640,851 650,850 660,850 668,850 674,850 685,853 697,858 708,863 719,870 729,876 740,882 752,887 763,891 765,889 768,887 771,885 774,884 773,882 768,877 761,871 751,864 740,855 730,846 721,837 715,828 706,821 697,816 687,811 678,807 668,802 658,797 649,792 641,786 653,789 666,790 679,791 694,791 707,793 719,797 729,805 737,819 748,833 761,845 776,856 790,867 803,879 813,892 819,908 820,927 817,965 819,1001 825,1038 832,1073 837,1086 842,1100 847,1115 853,1128 859,1142 867,1154 877,1165 889,1174 884,1186 879,1198 872,1210 863,1224 852,1238 839,1253 823,1269 805,1286 811,1292 816,1298 822,1303 830,1305 849,1292 866,1276 881,1259 894,1241 907,1221 918,1201 929,1181 940,1162 948,1170 960,1183 975,1199 994,1217 1014,1238 1037,1260 1060,1284 1084,1307 1108,1330 1131,1352 1152,1373 1170,1391 1186,1406 1199,1417 1207,1425 1210,1427 1213,1416 1214,1406 1212,1397 1209,1387 1203,1378 1196,1368 1186,1357 1175,1346 1181,1304 1184,1262 1185,1219 1187,1176 1191,1134 1198,1093 1211,1054 1230,1017 1234,1014 1240,1006 1248,996 1257,985 1266,973 1272,964 1277,957 1277,954 1255,966 1236,980 1220,998 1206,1017 1193,1037 1182,1058 1172,1080 1163,1101 1144,1232 1142,1250 1138,1266 1133,1283 1126,1298 1112,1287 1098,1276 1084,1264 1070,1251 1057,1238 1043,1224 1030,1209 1018,1194 1005,1179 993,1164 981,1148 970,1133 959,1117 949,1101 939,1085 930,1070 924,1066 918,1066 912,1069 908,1073 904,1079 900,1085 897,1091 895,1097 899,1097 907,1097 915,1097 921,1100 909,1133 902,1128 896,1123 890,1116 885,1109 880,1102 876,1094 872,1086 868,1079 857,1033 849,987 845,939 848,891 846,883 842,876 837,869 831,863 825,857 819,851 814,845 809,838 811,836 816,832 821,829 826,829 833,834 841,838 850,843 859,848 868,852 878,856 888,860 899,864 910,867 922,870 934,873 946,874 958,875 970,875 982,875 995,873 1005,884 1014,895 1025,906 1035,916 1046,926 1057,934 1068,940 1079,945 1073,931 1067,918 1062,907 1058,896 1053,887 1049,877 1045,867 1040,857 1043,855 1050,849 1062,840 1075,829 1090,816 1104,802 1116,788 1126,774 1136,756 1145,740 1152,724 1158,710 1162,698 1165,687 1166,678 1166,672 1162,677 1156,685 1150,696 1143,709 1134,723 1124,739 1112,755 1100,771 1085,786 1069,801 1050,814 1030,825 1008,834 984,839 957,841 928,839 907,834 888,827 869,817 851,806 835,792 819,778 805,762 792,746 774,769"/>
<polygon class="pen1 brush12" points="585,915 600,917 615,918 631,917 647,917 663,918 677,921 691,927 703,938 708,944 718,958 727,973 732,980 724,979 716,977 707,976 699,974 690,972 682,970 673,969 665,968 655,970 645,971 635,972 626,972 616,972 606,972 596,972 586,972 592,980 600,985 611,987 623,988 636,989 648,990 659,994 669,1000 686,1013 700,1028 711,1045 720,1062 729,1081 739,1100 749,1118 762,1137 773,1149 785,1160 796,1170 808,1179 818,1189 826,1199 833,1210 836,1223 830,1221 824,1218 820,1216 816,1213 812,1211 808,1208 804,1206 799,1204 785,1199 772,1192 758,1186 746,1178 734,1168 723,1158 714,1145 706,1131 696,1109 689,1085 683,1061 677,1037 671,1029 664,1021 656,1015 647,1010 637,1006 628,1003 617,1002 607,1003 598,1002 590,998 582,993 575,987 569,980 564,972 562,965 561,957 574,954 590,953 606,952 622,951 637,951 649,951 657,951 660,951 649,944 638,940 625,938 611,936 598,935 585,932 573,927 562,919 560,915 559,911 560,906 563,903 570,904 575,908 580,912 585,915"/>
<polygon class="pen1 brush12" points="407,1332 390,1338 373,1344 357,1351 340,1357 323,1363 306,1368 288,1370 270,1370 254,1365 240,1359 227,1352 215,1344 203,1334 190,1323 177,1310 163,1296 145,1274 133,1249 125,1223 121,1195 121,1167 124,1139 130,1111 138,1084 144,1064 151,1043 158,1023 166,1003 174,983 182,963 189,943 195,922 198,927 194,951 187,990 178,1039 169,1093 164,1148 163,1198 170,1240 180,1255 190,1270 201,1285 213,1299 226,1311 239,1321 253,1329 269,1334 297,1334 321,1331 342,1326 361,1319 378,1311 393,1302 407,1294 420,1286 407,1332"/>
<polygon class="pen1 brush12" points="973,1867 987,1878 1001,1886 1014,1892 1028,1895 1041,1896 1056,1896 1071,1895 1088,1894 1094,1911 1103,1927 1109,1943 1111,1961 1107,1992 1166,1991 1167,1983 1167,1973 1166,1963 1167,1955 1182,1951 1198,1948 1213,1944 1229,1942 1244,1939 1260,1937 1275,1934 1291,1931 1306,1928 1321,1925 1336,1921 1351,1916 1366,1910 1381,1904 1395,1897 1409,1888 1418,1882 1429,1872 1442,1861 1457,1848 1472,1834 1489,1819 1506,1803 1523,1787 1539,1772 1554,1757 1568,1744 1581,1731 1591,1721 1599,1714 1604,1709 1606,1707 1616,1695 1626,1683 1636,1672 1648,1662 1660,1653 1673,1645 1688,1638 1705,1634 1721,1655 1739,1690 1756,1736 1773,1789 1788,1844 1800,1899 1808,1950 1811,1992 1875,1992 1872,1979 1864,1944 1852,1893 1835,1832 1814,1767 1790,1704 1762,1649 1732,1608 1722,1605 1711,1604 1699,1605 1687,1607 1674,1612 1661,1618 1648,1625 1634,1634 1620,1644 1605,1655 1591,1667 1576,1680 1562,1694 1547,1708 1533,1723 1519,1739 1508,1754 1496,1769 1483,1783 1470,1797 1455,1810 1440,1823 1425,1834 1409,1846 1393,1856 1376,1866 1358,1875 1341,1882 1323,1889 1305,1895 1287,1900 1269,1903 1254,1907 1239,1910 1223,1912 1207,1913 1191,1915 1175,1918 1160,1923 1146,1931 1143,1922 1140,1912 1139,1903 1141,1893 1151,1894 1161,1894 1170,1894 1180,1894 1190,1894 1200,1894 1209,1894 1219,1893 1231,1892 1244,1891 1256,1888 1268,1885 1279,1882 1291,1877 1302,1872 1314,1866 1325,1860 1336,1854 1346,1847 1357,1840 1368,1832 1378,1825 1389,1817 1399,1809 1401,1807 1408,1801 1419,1791 1433,1778 1449,1763 1467,1746 1486,1729 1506,1710 1526,1691 1545,1673 1563,1656 1580,1641 1593,1628 1603,1618 1610,1611 1612,1608 1605,1610 1595,1614 1584,1621 1571,1630 1557,1641 1542,1652 1526,1665 1511,1677 1496,1690 1481,1702 1468,1714 1457,1724 1447,1733 1439,1739 1435,1743 1433,1745 1424,1754 1415,1763 1406,1772 1396,1780 1386,1787 1377,1795 1367,1801 1356,1808 1346,1814 1336,1819 1325,1825 1314,1829 1303,1834 1292,1838 1281,1842 1270,1845 1260,1847 1247,1849 1232,1851 1215,1853 1196,1855 1176,1856 1155,1857 1135,1858 1114,1858 1094,1859 1076,1858 1059,1858 1045,1857 1032,1855 1023,1853 1018,1850 1007,1835 991,1805 971,1763 948,1714 924,1662 900,1611 879,1564 860,1525 851,1510 841,1496 831,1484 821,1472 810,1459 800,1445 790,1429 781,1410 776,1376 767,1339 756,1303 745,1268 734,1237 724,1212 717,1196 715,1190 718,1201 721,1226 725,1262 731,1303 737,1347 745,1387 754,1420 765,1441 783,1465 798,1489 812,1514 823,1539 833,1564 842,1589 851,1615 860,1641 889,1713 913,1768 933,1808 948,1835 959,1853 967,1862 972,1866 973,1867"/>
<polygon class="pen1 brush12" points="1501,1331 1496,1351 1488,1375 1478,1401 1466,1430 1452,1459 1435,1490 1417,1520 1398,1550 1377,1578 1355,1604 1332,1627 1308,1647 1283,1662 1258,1673 1233,1678 1208,1676 1182,1669 1154,1658 1126,1643 1098,1626 1070,1606 1042,1584 1014,1560 987,1534 961,1508 937,1481 914,1454 892,1427 873,1401 857,1375 843,1351 832,1329 837,1327 842,1324 848,1323 854,1321 859,1320 863,1320 866,1319 867,1319 870,1323 878,1334 891,1351 909,1372 930,1398 954,1427 981,1457 1011,1488 1041,1519 1073,1548 1104,1575 1136,1598 1167,1617 1197,1630 1225,1636 1250,1635 1270,1627 1291,1613 1312,1596 1333,1575 1354,1551 1375,1525 1394,1498 1413,1471 1431,1444 1448,1418 1462,1394 1475,1373 1485,1355 1493,1342 1499,1333 1501,1331"/>
</g>
</svg>