<?xml version="1.0" encoding="utf-8"?>
<!DOCTYPE svg PUBLIC "-//W3C//DTD SVG 1.0//EN" "http://www.w3.org/TR/2001/REC-SVG-20010904/DTD/svg10.dtd">
<svg aria-labelledby="title desc" fill-rule="evenodd" height="1.983in" preserveAspectRatio="none" stroke-linecap="round" viewBox="0 0 1835 1983" width="1.835in" xmlns="http://www.w3.org/2000/svg" xmlns:xlink="http://www.w3.org/1999/xlink"><title>academics,boys,children,classrooms,desks,education,exam papers,examinations,gestures,kids,persons,schools,students,teenagers,teens,test papers,tests,thinking</title><desc>Original keywords: academics,boys,children,classrooms,desks,education,exam papers,examinations,gestures,kids,persons,schools,students,teenagers,teens,test papers,tests,thinking. This clipart was ripped from the Microsoft website, then uploaded to https://archive.org/details/MS_Clipart_Collection. (The original WMF file can be found within that item, under the folder MC900398129). From there, it was then converted by Trumad to svg using https://github.com/hidekatsu-izuno/wmf2svg in a bulk operation. All the converted files can be found at https://archive.org/details/MS_Clipart_Collection_SVG</desc>
<style type="text/css">
.brush0 { fill: rgb(255,255,255); }
.pen0 { stroke: rgb(0,0,0); stroke-width: 1; stroke-linejoin: round; }
.brush1 { fill: none; }
.pen1 { stroke: none; }
.brush2 { fill: rgb(255,255,124); }
.brush3 { fill: rgb(114,114,114); }
.brush4 { fill: rgb(224,173,140); }
.brush5 { fill: rgb(214,249,252); }
.brush6 { fill: rgb(255,104,112); }
.brush7 { fill: rgb(242,216,206); }
.brush8 { fill: rgb(242,214,204); }
.brush9 { fill: rgb(239,209,198); }
.brush10 { fill: rgb(239,206,193); }
.brush11 { fill: rgb(237,198,188); }
.brush12 { fill: rgb(237,196,186); }
.brush13 { fill: rgb(237,193,181); }
.brush14 { fill: rgb(234,188,175); }
.brush15 { fill: rgb(234,186,173); }
.brush16 { fill: rgb(232,181,168); }
.brush17 { fill: rgb(232,175,165); }
.brush18 { fill: rgb(232,173,163); }
.brush19 { fill: rgb(229,168,155); }
.brush20 { fill: rgb(229,165,153); }
.brush21 { fill: rgb(112,209,255); }
.brush22 { fill: rgb(0,0,0); }
</style>
<g>
<polygon class="pen1 brush2" points="565,90 560,92 553,96 546,103 537,112 527,124 516,137 505,152 494,168 485,183 478,197 473,209 469,221 466,234 462,247 457,262 450,279 446,285 442,291 437,296 433,303 431,311 432,321 436,335 444,352 453,368 459,377 463,382 468,385 476,389 487,395 505,406 531,424 557,444 575,460 588,472 599,479 608,482 619,479 635,471 657,457 671,448 686,438 701,426 717,413 733,400 750,386 766,372 782,357 797,343 811,330 825,316 837,304 848,293 858,283 865,274 871,267 881,253 891,236 902,217 912,198 921,179 928,162 933,148 935,138 936,132 936,126 937,121 936,116 933,110 927,103 917,93 902,82 885,71 870,61 857,53 843,46 829,41 814,36 796,31 776,27 757,23 742,19 730,17 720,16 709,17 696,21 679,28 657,38 634,50 615,60 599,69 586,76 577,82 570,87 566,89 565,90"/>
<polygon class="pen1 brush3" points="333,756 328,758 320,761 308,765 294,768 277,772 259,777 240,781 220,786 199,790 180,795 161,800 143,804 128,808 114,812 104,816 97,819 76,836 57,857 42,879 29,900 19,920 12,937 8,948 7,952 7,956 9,967 11,984 15,1005 20,1029 27,1053 36,1077 46,1098 57,1121 69,1150 81,1183 92,1218 103,1253 114,1287 123,1316 131,1339 139,1361 148,1388 158,1417 169,1445 180,1471 190,1491 198,1505 205,1509 212,1508 225,1506 245,1504 269,1501 297,1498 329,1494 362,1490 397,1486 431,1481 465,1476 497,1470 526,1465 551,1459 572,1453 586,1448 594,1442 595,1430 589,1404 578,1368 563,1323 544,1270 522,1212 497,1151 472,1088 447,1026 422,965 398,909 377,859 359,817 345,784 336,763 333,756"/>
<polygon class="pen1 brush4" points="146,1523 141,1621 469,1937 1835,1379 1368,1146 146,1523"/>
<polygon class="pen1 brush5" points="698,1439 714,1443 734,1450 756,1458 780,1467 802,1477 822,1487 838,1495 847,1502 854,1510 865,1522 877,1535 891,1550 905,1564 917,1576 928,1584 935,1587 943,1588 957,1591 974,1596 994,1601 1013,1607 1032,1614 1049,1619 1061,1624 1072,1629 1085,1637 1099,1645 1113,1655 1127,1663 1139,1671 1150,1677 1157,1680 1165,1682 1176,1684 1190,1686 1205,1688 1218,1690 1230,1692 1238,1693 1241,1693 1243,1692 1248,1690 1256,1686 1266,1680 1279,1674 1293,1667 1308,1660 1323,1652 1339,1645 1355,1637 1370,1630 1383,1624 1395,1618 1405,1614 1413,1611 1417,1609 1426,1606 1442,1599 1461,1590 1482,1580 1503,1570 1521,1560 1535,1552 1543,1547 1549,1540 1553,1533 1558,1524 1568,1516 1572,1512 1570,1507 1565,1502 1557,1498 1548,1494 1540,1490 1534,1488 1532,1487 1531,1486 1526,1485 1520,1482 1511,1479 1500,1474 1488,1470 1475,1464 1461,1459 1446,1453 1430,1447 1415,1441 1400,1436 1386,1430 1373,1425 1361,1421 1350,1417 1331,1410 1312,1404 1294,1399 1279,1395 1265,1391 1255,1389 1248,1388 1246,1387 1153,1335 1099,1326 1095,1328 1083,1333 1065,1341 1044,1350 1019,1359 994,1368 970,1375 949,1379 939,1381 926,1383 912,1385 897,1388 881,1390 864,1393 847,1396 831,1399 815,1402 800,1404 786,1407 774,1409 764,1411 757,1412 752,1413 750,1413 698,1439"/>
<polygon class="pen1 brush6" points="585,595 583,596 577,597 569,600 557,604 544,609 528,614 512,620 494,627 476,634 458,641 440,648 424,656 409,663 395,670 384,677 376,683 358,701 339,725 320,753 302,784 284,818 267,854 253,891 242,927 233,964 227,1001 221,1039 217,1076 213,1113 209,1147 204,1180 198,1209 187,1259 182,1299 184,1329 194,1350 200,1360 203,1371 206,1382 209,1391 212,1397 217,1398 224,1393 235,1379 248,1361 263,1342 278,1325 295,1308 311,1292 327,1279 342,1268 357,1261 374,1255 396,1250 421,1245 447,1240 471,1235 492,1231 507,1226 514,1222 517,1220 524,1220 533,1219 545,1220 558,1221 574,1222 590,1224 608,1226 626,1228 644,1230 662,1232 680,1234 696,1236 711,1237 724,1238 735,1238 745,1238 756,1238 767,1238 779,1237 791,1237 803,1236 815,1236 828,1235 840,1234 851,1233 862,1232 873,1231 882,1229 891,1228 899,1226 906,1224 917,1216 926,1201 933,1182 940,1160 947,1138 955,1117 964,1101 975,1090 986,1085 995,1085 1001,1087 1006,1092 1010,1100 1014,1109 1018,1118 1023,1128 1029,1138 1037,1148 1045,1158 1055,1167 1065,1177 1076,1186 1087,1194 1098,1201 1109,1207 1120,1212 1131,1215 1140,1217 1149,1216 1155,1213 1159,1208 1161,1201 1158,1191 1151,1177 1141,1161 1130,1144 1119,1125 1109,1107 1103,1090 1101,1075 1100,1054 1096,1021 1089,982 1081,939 1073,897 1066,860 1062,833 1061,819 1064,792 1067,741 1069,688 1066,649 1061,636 1052,624 1041,613 1029,603 1017,594 1008,588 1001,583 998,582 994,583 982,584 965,587 946,590 926,593 907,595 892,597 883,598 877,598 867,597 853,596 834,595 814,594 791,592 767,590 742,588 718,587 694,585 673,583 653,582 637,581 624,580 616,579 613,579 585,595"/>
<polygon class="pen1 brush7" points="1213,743 1205,715 1196,684 1186,651 1176,619 1167,589 1160,563 1154,543 1151,531 1151,494 1155,428 1156,361 1150,320 1143,310 1133,298 1123,287 1111,276 1101,267 1092,259 1086,254 1084,252 982,228 980,228 975,227 967,227 959,228 951,231 944,238 939,248 937,262 932,245 926,229 921,214 917,201 913,190 910,181 908,176 907,174 848,206 846,204 842,198 837,190 830,182 823,174 817,168 812,166 810,168 806,175 799,184 789,195 778,206 767,216 758,224 751,230 749,232 749,196 744,200 732,211 715,225 696,242 677,258 660,271 648,279 643,279 644,263 648,238 651,215 652,205 588,278 554,257 531,331 561,375 557,409 552,409 543,412 533,421 528,442 529,455 531,466 534,475 538,483 544,490 551,496 559,501 568,505 578,509 588,511 597,514 606,516 614,519 621,523 625,528 628,535 629,552 628,571 625,593 620,616 618,630 616,645 616,662 618,678 621,694 626,709 633,721 643,731 655,740 668,750 682,760 696,770 709,778 721,784 731,788 739,788 745,788 750,791 757,795 763,799 771,801 779,800 788,794 798,783 808,767 817,750 823,732 829,714 835,697 840,681 845,667 851,656 857,646 862,636 866,626 871,615 876,605 882,596 889,588 899,582 918,568 932,551 943,531 951,512 956,493 959,478 961,468 961,464 962,453 963,425 963,389 961,352 965,358 972,366 980,374 989,382 998,391 1006,401 1014,411 1020,422 1024,443 1023,462 1019,476 1017,482 1016,493 1017,518 1020,548 1028,574 1033,582 1039,591 1045,602 1051,615 1056,631 1062,650 1067,675 1072,705 1074,749 1072,793 1069,835 1068,875 1072,913 1078,946 1083,975 1087,1001 1090,1028 1098,1060 1108,1094 1120,1128 1133,1159 1145,1185 1156,1203 1165,1211 1174,1210 1186,1205 1200,1196 1215,1186 1229,1175 1241,1164 1250,1155 1254,1149 1258,1136 1263,1112 1268,1076 1272,1027 1271,996 1267,961 1260,922 1251,882 1241,842 1230,805 1221,771 1213,743"/>
<polygon class="pen1 brush7" points="731,468 739,467 747,465 754,461 760,456 765,450 769,444 771,436 772,428 771,420 769,413 765,406 760,400 754,396 747,392 739,390 731,389 723,390 715,392 708,396 702,400 697,406 693,413 691,420 690,428 691,436 693,444 697,450 702,456 708,461 715,465 723,467 731,468"/>
<polygon class="pen1 brush8" points="731,466 739,465 746,463 753,460 759,455 763,449 767,443 769,436 770,428 769,420 767,413 763,407 759,401 753,396 746,393 739,391 731,390 723,391 716,393 709,396 703,401 699,407 695,413 693,420 692,428 693,436 695,443 699,449 703,455 709,460 716,463 723,465 731,466"/>
<polygon class="pen1 brush9" points="731,465 739,464 746,462 752,459 758,454 763,448 766,442 768,435 769,428 768,421 766,414 763,408 758,402 752,398 746,395 739,393 731,392 723,393 716,395 710,398 704,402 699,408 696,414 694,421 693,428 694,435 696,442 699,448 704,454 710,459 716,462 723,464 731,465"/>
<polygon class="pen1 brush10" points="731,463 738,462 745,460 751,457 757,453 761,448 764,442 766,435 767,428 766,421 764,415 761,409 757,403 751,399 745,396 738,394 731,393 724,394 717,396 711,399 706,403 701,409 698,415 696,421 695,428 696,435 698,442 701,448 706,453 711,457 717,460 724,462 731,463"/>
<polygon class="pen1 brush11" points="731,462 738,461 744,459 750,456 756,452 760,447 763,441 765,435 766,428 765,421 763,415 760,410 756,405 750,401 744,398 738,396 731,395 724,396 718,398 712,401 707,405 703,410 700,415 698,421 697,428 698,435 700,441 703,447 707,452 712,456 718,459 724,461 731,462"/>
<polygon class="pen1 brush12" points="731,460 738,459 744,458 749,455 754,451 758,446 761,441 763,435 764,428 763,422 761,416 758,410 754,406 749,402 744,399 738,397 731,396 724,397 718,399 713,402 708,406 704,410 701,416 699,422 698,428 699,435 701,441 704,446 708,451 713,455 718,458 724,459 731,460"/>
<polygon class="pen1 brush13" points="731,459 737,458 743,457 749,454 753,450 757,445 760,440 762,434 763,428 762,422 760,417 757,411 753,407 749,403 743,400 737,399 731,398 725,399 719,400 714,403 709,407 705,411 702,417 701,422 700,428 701,434 702,440 705,445 709,450 714,454 719,457 725,458 731,459"/>
<polygon class="pen1 brush14" points="731,457 737,456 743,455 748,452 752,448 756,444 759,439 760,434 761,428 760,422 759,417 756,412 752,407 748,404 743,401 737,400 731,399 725,400 720,401 714,404 710,407 706,412 703,417 702,422 701,428 702,434 703,439 706,444 710,448 714,452 720,455 725,456 731,457"/>
<polygon class="pen1 brush15" points="731,456 742,454 751,448 757,439 759,428 757,417 751,409 742,403 731,401 720,403 711,409 705,417 703,428 705,439 711,448 720,454 731,456"/>
<polygon class="pen1 brush16" points="731,454 742,452 750,446 756,438 758,428 756,418 750,410 742,405 731,403 720,405 712,410 706,418 704,428 706,438 712,446 720,452 731,454"/>
<polygon class="pen1 brush17" points="731,452 741,450 749,445 754,438 756,428 754,419 749,411 741,406 731,404 721,406 713,411 708,419 706,428 708,438 713,445 721,450 731,452"/>
<polygon class="pen1 brush18" points="731,451 740,449 748,444 753,437 755,428 753,419 748,412 740,408 731,406 722,408 715,412 710,419 708,428 710,437 715,444 722,449 731,451"/>
<polygon class="pen1 brush19" points="731,449 740,447 747,443 751,436 753,428 751,420 747,413 740,409 731,407 723,409 716,413 711,420 709,428 711,436 716,443 723,447 731,449"/>
<polygon class="pen1 brush20" points="731,448 739,446 746,442 750,436 752,428 750,420 746,414 739,410 731,409 723,410 717,414 713,420 711,428 713,436 717,442 723,446 731,448"/>
<polygon class="pen1 brush7" points="930,371 937,370 943,369 948,366 953,362 957,357 960,352 962,346 963,339 962,333 960,327 957,322 953,317 948,313 943,310 937,309 930,308 924,309 918,310 913,313 908,317 904,322 901,327 900,333 899,339 900,346 901,352 904,357 908,362 913,366 918,369 924,370 930,371"/>
<polygon class="pen1 brush8" points="930,370 937,369 943,368 948,365 953,361 957,356 960,351 961,345 962,339 961,333 960,328 957,322 953,318 948,314 943,311 937,310 930,309 924,310 919,311 913,314 909,318 905,322 902,328 901,333 900,339 901,345 902,351 905,356 909,361 913,365 919,368 924,369 930,370"/>
<polygon class="pen1 brush9" points="930,368 936,367 942,366 947,363 952,359 956,355 959,350 960,345 961,339 960,333 959,328 956,323 952,318 947,315 942,312 936,311 930,310 919,312 910,318 903,328 901,339 903,350 910,359 919,366 930,368"/>
<polygon class="pen1 brush10" points="930,367 941,365 951,359 957,350 959,339 957,328 951,319 941,313 930,311 919,313 911,319 905,328 903,339 905,350 911,359 919,365 930,367"/>
<polygon class="pen1 brush11" points="930,366 941,364 950,358 956,350 958,339 956,329 950,321 941,315 930,313 920,315 912,321 906,329 904,339 906,350 912,358 920,364 930,366"/>
<polygon class="pen1 brush12" points="930,365 941,363 949,357 955,349 957,339 955,329 949,321 941,316 930,314 921,316 913,321 907,329 905,339 907,349 913,357 921,363 930,365"/>
<polygon class="pen1 brush13" points="930,364 940,362 948,357 954,349 956,339 954,330 948,322 940,317 930,315 921,317 914,322 908,330 906,339 908,349 914,357 921,362 930,364"/>
<polygon class="pen1 brush14" points="930,362 940,360 947,355 952,348 954,339 952,330 947,323 940,318 930,316 922,318 915,323 910,330 908,339 910,348 915,355 922,360 930,362"/>
<polygon class="pen1 brush15" points="930,361 939,359 946,354 951,347 953,339 951,330 946,323 939,319 930,317 922,319 915,323 911,330 909,339 911,347 915,354 922,359 930,361"/>
<polygon class="pen1 brush16" points="930,360 939,358 946,354 950,347 952,339 950,331 946,325 939,321 930,319 923,321 916,325 912,331 910,339 912,347 916,354 923,358 930,360"/>
<polygon class="pen1 brush17" points="930,359 938,357 945,353 949,347 950,339 949,332 945,326 938,322 930,320 923,322 917,326 913,332 911,339 913,347 917,353 923,357 930,359"/>
<polygon class="pen1 brush18" points="930,357 938,356 944,352 948,346 949,339 948,332 944,326 938,322 930,321 924,322 918,326 914,332 913,339 914,346 918,352 924,356 930,357"/>
<polygon class="pen1 brush19" points="930,356 937,355 943,351 947,346 948,339 947,333 943,327 937,323 930,322 924,323 919,327 915,333 914,339 915,346 919,351 924,355 930,356"/>
<polygon class="pen1 brush20" points="930,355 936,354 942,350 946,345 947,339 946,333 942,328 936,325 930,324 924,325 920,328 916,333 915,339 916,345 920,350 924,354 930,355"/>
<polygon class="pen1 brush6" points="279,1405 253,1483 606,1387 550,1324 279,1405"/>
<polygon class="pen1 brush7" points="235,1398 230,1387 228,1369 231,1349 239,1334 244,1326 250,1315 257,1301 266,1286 280,1271 298,1256 324,1244 357,1235 389,1229 411,1225 427,1222 439,1220 448,1219 459,1217 473,1216 493,1214 514,1212 530,1211 544,1212 557,1213 571,1214 588,1217 611,1220 640,1224 669,1228 691,1231 707,1234 722,1235 735,1237 751,1237 771,1238 797,1238 812,1238 825,1237 837,1235 848,1233 859,1231 868,1228 878,1226 887,1223 896,1220 906,1217 915,1214 926,1211 937,1209 949,1207 962,1206 977,1205 1007,1204 1034,1203 1058,1203 1078,1203 1096,1204 1112,1205 1124,1206 1134,1208 1145,1211 1159,1216 1174,1223 1190,1231 1204,1239 1215,1246 1221,1252 1221,1256 1211,1259 1192,1264 1168,1268 1140,1272 1114,1277 1090,1280 1074,1282 1068,1283 1065,1285 1058,1289 1048,1296 1035,1303 1022,1310 1009,1317 997,1321 988,1323 979,1323 967,1322 953,1322 937,1321 920,1322 904,1322 888,1324 875,1326 854,1332 840,1337 830,1341 822,1344 812,1348 797,1352 774,1356 739,1361 719,1364 700,1367 683,1370 667,1373 651,1376 636,1379 622,1382 608,1385 593,1387 579,1390 564,1393 549,1395 533,1397 515,1398 497,1400 477,1401 456,1402 435,1402 414,1402 393,1402 372,1402 352,1402 333,1401 315,1401 298,1401 283,1400 269,1400 257,1399 248,1399 241,1398 237,1398 235,1398"/>
<polygon class="pen1 brush21" points="1013,148 1005,286 1057,261 1062,150 1050,112 1013,148"/>
<polygon class="pen1 brush22" points="16,967 21,969 25,975 27,982 29,989 37,1033 47,1075 60,1117 74,1158 89,1198 105,1238 121,1278 137,1318 139,1327 145,1342 154,1360 164,1380 173,1399 179,1416 181,1428 176,1434 138,1349 129,1329 119,1309 110,1289 100,1269 91,1250 82,1229 74,1209 66,1187 23,1071 16,1042 11,1011 10,983 16,967"/>
<polygon class="pen1 brush22" points="36,851 45,851 38,870 30,889 24,909 24,929 5,932 4,920 6,909 9,898 14,888 19,878 25,869 31,860 36,851"/>
<polygon class="pen1 brush22" points="88,806 98,801 109,796 121,792 134,787 147,782 160,778 174,773 189,769 203,766 217,762 231,759 245,756 259,753 272,750 284,749 296,747 295,748 291,751 285,754 279,757 271,761 265,764 260,766 258,768 245,770 233,772 220,775 207,777 195,780 183,783 170,786 158,790 146,793 135,797 123,802 111,807 100,812 89,817 78,823 67,830 63,825 63,822 65,819 70,816 75,814 80,812 85,809 88,806"/>
<polygon class="pen1 brush22" points="118,1556 124,1556 125,1566 125,1577 123,1587 120,1596 115,1589 115,1579 117,1567 118,1556"/>
<polygon class="pen1 brush22" points="141,1621 239,1733 246,1740 256,1750 270,1764 286,1780 304,1798 324,1817 345,1838 366,1859 388,1880 409,1901 429,1920 448,1938 464,1954 478,1967 489,1976 497,1982 494,1981 488,1978 481,1973 472,1966 461,1958 449,1948 437,1938 423,1926 400,1907 377,1886 355,1866 334,1847 316,1830 301,1816 291,1806 286,1801 205,1709 197,1698 187,1686 177,1675 167,1665 156,1654 146,1643 137,1632 128,1621 141,1621"/>
<polygon class="pen1 brush22" points="140,1534 247,1649 256,1659 269,1673 286,1689 306,1708 329,1730 353,1752 378,1776 404,1800 430,1825 455,1848 479,1871 501,1892 521,1911 537,1928 549,1941 557,1951 552,1949 542,1943 529,1932 513,1919 495,1903 475,1886 454,1866 432,1847 411,1827 390,1807 370,1789 352,1772 336,1758 324,1746 315,1738 310,1734 299,1722 288,1710 277,1698 266,1685 254,1673 243,1660 232,1648 220,1635 209,1623 197,1611 186,1598 174,1586 162,1574 151,1563 139,1551 128,1540 130,1537 133,1535 136,1534 140,1534"/>
<polygon class="pen1 brush22" points="189,1498 215,1490 235,1484 253,1479 269,1473 284,1469 301,1464 321,1458 345,1452 355,1448 372,1444 393,1439 418,1434 442,1429 464,1424 481,1421 491,1418 494,1419 499,1420 506,1420 514,1420 522,1420 528,1420 532,1421 533,1422 515,1425 495,1429 473,1434 450,1439 426,1446 401,1452 376,1459 350,1466 324,1474 298,1481 273,1488 249,1495 226,1501 205,1507 185,1512 167,1516 189,1498"/>
<polygon class="pen1 brush22" points="193,1174 199,1174 195,1194 190,1214 185,1234 180,1254 177,1274 177,1295 179,1315 187,1336 190,1343 193,1349 197,1355 201,1362 205,1368 210,1374 214,1379 218,1385 211,1385 204,1383 198,1378 192,1372 187,1365 182,1358 178,1352 174,1347 165,1326 161,1304 161,1282 164,1260 170,1238 178,1216 186,1195 193,1174"/>
<polygon class="pen1 brush22" points="327,718 332,716 339,713 345,712 348,712 324,757 301,804 279,854 259,906 241,959 227,1012 216,1065 209,1116 208,1119 206,1121 203,1121 200,1119 206,1066 215,1013 228,960 243,909 261,858 281,809 303,762 327,718"/>
<polygon class="pen1 brush22" points="337,1234 355,1231 373,1227 392,1224 410,1220 429,1217 447,1213 465,1210 482,1207 478,1214 471,1218 464,1220 457,1223 447,1223 438,1224 429,1226 421,1228 412,1230 403,1232 394,1233 384,1233 367,1236 351,1240 334,1245 318,1252 304,1260 290,1269 279,1281 270,1295 264,1302 259,1309 254,1316 250,1324 246,1331 242,1339 239,1347 236,1356 227,1353 232,1334 238,1316 244,1298 254,1281 266,1266 284,1253 307,1242 337,1234"/>
<polygon class="pen1 brush22" points="262,1394 272,1395 283,1395 294,1396 304,1396 315,1397 326,1397 337,1397 348,1397 359,1397 371,1398 382,1398 393,1398 404,1398 415,1398 426,1399 437,1399 437,1402 438,1405 438,1407 435,1408 420,1410 406,1411 392,1412 378,1413 364,1414 351,1414 338,1414 325,1414 312,1414 300,1414 288,1413 277,1413 266,1412 255,1411 245,1409 235,1408 239,1405 248,1401 257,1397 262,1394"/>
<polygon class="pen1 brush22" points="344,1145 351,1148 358,1150 365,1153 372,1153 372,1163 365,1161 358,1159 350,1157 343,1155 335,1155 327,1155 320,1155 312,1157 305,1163 298,1168 291,1174 284,1179 274,1180 280,1172 286,1164 294,1158 303,1153 312,1149 322,1146 333,1145 344,1145"/>
<polygon class="pen1 brush22" points="510,607 519,606 527,603 537,601 546,598 556,595 565,592 574,591 583,590 585,595 573,600 561,605 549,611 537,616 525,621 513,626 501,630 489,635 477,640 465,645 453,649 441,654 429,658 416,663 404,667 392,671 388,674 384,678 380,682 376,686 371,691 367,694 362,696 356,696 357,686 364,677 371,669 377,660 394,652 410,645 427,639 443,633 460,627 476,621 493,614 510,607"/>
<polygon class="pen1 brush22" points="398,1150 405,1151 412,1152 419,1152 426,1151 434,1151 441,1151 449,1151 457,1152 465,1152 474,1153 482,1154 491,1157 499,1160 506,1163 513,1167 519,1170 510,1187 503,1188 501,1184 500,1179 497,1175 486,1168 473,1164 460,1163 446,1162 432,1162 419,1161 407,1157 398,1150"/>
<polygon class="pen1 brush22" points="445,238 451,238 452,243 449,248 446,253 443,258 438,272 436,288 435,303 437,319 440,335 446,349 453,363 463,375 468,380 475,384 483,388 492,392 500,396 506,401 512,406 515,413 510,414 503,412 497,410 489,406 482,402 475,399 469,396 463,394 442,380 428,363 421,343 419,322 422,299 428,277 436,257 445,238"/>
<polygon class="pen1 brush22" points="595,53 601,52 607,56 613,61 618,64 618,67 599,68 580,70 561,76 543,83 526,93 511,105 497,120 486,138 479,154 472,175 464,197 458,213 455,203 458,185 463,168 466,155 472,130 482,110 496,93 513,80 532,70 552,62 574,57 595,53"/>
<polygon class="pen1 brush22" points="504,1388 506,1388 511,1387 520,1387 531,1386 544,1385 559,1383 575,1382 591,1380 607,1379 623,1378 638,1376 651,1375 662,1374 671,1374 677,1373 679,1373 693,1379 516,1402 513,1403 508,1403 501,1403 493,1402 486,1401 479,1399 473,1398 470,1396 472,1393 475,1391 480,1390 485,1389 490,1388 496,1388 500,1388 504,1388"/>
<polygon class="pen1 brush22" points="537,1029 545,1013 551,997 556,980 560,962 562,944 564,926 566,907 567,889 573,889 575,918 575,945 572,972 567,999 558,1024 545,1048 528,1072 506,1094 503,1101 505,1108 509,1116 511,1123 513,1123 515,1124 516,1126 516,1128 516,1133 514,1136 510,1138 507,1141 501,1137 498,1128 496,1118 493,1110 495,1097 499,1086 504,1076 511,1067 519,1058 526,1049 532,1039 537,1029"/>
<polygon class="pen1 brush22" points="508,1213 525,1211 541,1210 557,1210 572,1210 587,1211 602,1213 617,1214 631,1216 645,1218 660,1221 674,1223 688,1225 702,1228 717,1230 731,1232 746,1233 750,1234 753,1235 756,1236 759,1236 759,1242 747,1242 734,1242 722,1240 710,1238 697,1237 684,1235 671,1235 657,1235 639,1232 622,1229 604,1227 586,1225 568,1224 550,1222 532,1222 513,1222 511,1220 509,1218 508,1216 508,1213"/>
<polygon class="pen1 brush22" points="539,409 546,407 554,408 561,412 567,417 567,418 567,420 566,421 565,422 560,419 553,418 546,418 540,418 533,429 530,442 529,455 531,469 535,477 541,484 547,491 554,496 562,501 570,504 579,507 588,507 592,508 597,508 602,508 608,509 613,509 617,511 620,515 621,520 615,524 609,526 601,526 594,524 586,522 578,519 569,516 560,513 552,509 545,504 539,498 533,491 528,484 524,477 520,470 517,462 518,446 522,431 529,418 539,409"/>
<polygon class="pen1 brush22" points="540,265 544,270 539,282 536,296 535,312 538,329 543,346 553,363 566,378 583,390 584,391 584,393 582,394 579,394 573,394 567,392 558,388 548,382 539,376 533,367 528,356 523,346 521,324 523,302 529,282 540,265"/>
<polygon class="pen1 brush22" points="569,663 572,669 574,677 576,685 579,692 586,716 594,740 605,764 619,785 634,805 652,822 673,836 697,847 709,849 721,851 733,853 745,853 758,854 770,852 781,850 792,845 793,851 789,855 782,858 777,863 764,865 752,866 739,866 727,866 716,865 704,863 693,860 683,857 672,852 662,847 652,841 643,834 634,825 625,816 617,806 609,794 602,778 595,763 588,747 582,731 576,715 572,699 569,682 568,664 569,663"/>
<polygon class="pen1 brush22" points="594,265 605,253 615,241 625,229 635,217 643,204 651,191 657,177 663,163 665,162 667,163 669,165 670,167 668,192 663,216 655,239 646,262 656,260 665,256 674,250 682,244 690,238 699,231 707,225 716,220 720,225 710,233 700,243 690,252 679,262 667,270 653,278 636,283 616,285 633,270 639,254 647,238 652,222 652,205 646,215 639,225 633,235 625,245 617,254 608,263 599,271 588,278 585,276 582,274 580,272 579,269 594,265"/>
<polygon class="pen1 brush22" points="606,638 613,643 614,652 614,662 616,672 623,692 634,711 646,730 662,747 679,762 698,775 718,783 739,788 750,789 762,788 772,787 783,785 793,782 803,779 813,775 822,771 826,773 829,775 831,777 831,781 828,785 824,784 819,782 815,784 801,791 786,796 771,800 756,802 741,802 725,800 711,797 696,793 681,783 667,770 655,756 643,741 632,725 623,708 614,691 607,675 607,665 605,656 604,647 606,638"/>
<polygon class="pen1 brush22" points="613,579 618,584 617,591 615,599 615,607 604,604 604,597 605,589 608,583 613,579"/>
<polygon class="pen1 brush22" points="641,550 655,563 671,573 690,582 711,589 732,594 753,598 774,601 792,604 789,608 784,611 776,612 767,612 758,611 750,611 743,610 738,610 719,611 703,608 689,603 676,596 665,588 655,579 645,569 635,559 635,556 635,553 637,552 641,550"/>
<polygon class="pen1 brush22" points="674,1422 690,1428 706,1435 722,1440 738,1446 754,1452 770,1458 786,1465 801,1472 809,1474 817,1478 824,1482 831,1487 837,1492 844,1497 851,1502 859,1506 874,1516 888,1529 901,1543 914,1557 927,1571 942,1582 958,1591 977,1597 993,1600 1010,1604 1027,1608 1043,1613 1060,1619 1077,1626 1094,1633 1111,1640 1128,1647 1144,1654 1161,1662 1177,1669 1194,1676 1210,1682 1225,1688 1241,1693 1240,1694 1237,1696 1232,1698 1227,1700 1221,1702 1215,1704 1211,1706 1209,1707 1193,1701 1178,1695 1162,1688 1147,1681 1132,1673 1117,1665 1102,1657 1087,1648 1072,1640 1057,1633 1041,1625 1026,1619 1010,1613 994,1608 977,1604 960,1601 942,1594 927,1585 914,1574 902,1561 890,1548 878,1535 865,1522 850,1512 839,1506 828,1500 817,1495 805,1490 794,1485 783,1481 771,1476 760,1472 749,1468 737,1463 726,1458 715,1453 704,1448 693,1442 682,1436 672,1429 672,1427 672,1425 673,1424 674,1422"/>
<polygon class="pen1 brush22" points="661,14 669,11 677,9 685,7 692,5 699,4 705,2 711,2 715,1 723,1 732,0 741,1 750,1 758,1 767,2 776,3 784,5 793,8 801,12 809,16 817,22 823,28 829,36 833,44 837,54 838,64 832,64 828,60 825,54 822,49 808,37 792,27 774,19 755,14 736,12 717,11 697,14 679,18 675,19 669,22 660,26 650,30 640,33 631,36 625,37 621,35 623,32 626,30 630,27 635,24 641,21 647,19 654,16 661,14"/>
<polygon class="pen1 brush22" points="706,1367 714,1364 723,1363 732,1361 741,1360 750,1358 758,1355 767,1352 775,1347 801,1345 823,1341 840,1335 854,1330 864,1325 871,1320 875,1318 876,1318 871,1325 869,1328 867,1332 862,1338 853,1342 844,1346 835,1349 825,1352 815,1355 805,1357 796,1360 786,1362 775,1365 766,1368 756,1370 748,1372 738,1373 729,1373 718,1373 706,1371 706,1367"/>
<polygon class="pen1 brush22" points="737,1412 754,1410 771,1407 787,1404 804,1401 820,1398 837,1394 853,1391 870,1387 886,1384 903,1380 919,1377 935,1373 952,1370 968,1367 985,1364 1001,1361 1007,1358 1014,1355 1020,1353 1026,1358 1024,1363 1020,1365 1014,1366 1010,1368 993,1371 976,1374 959,1378 942,1381 925,1385 908,1389 892,1393 875,1397 858,1401 841,1404 824,1408 807,1411 789,1413 772,1416 755,1418 737,1419 737,1412"/>
<polygon class="pen1 brush22" points="750,146 753,146 756,148 758,151 759,154 758,165 756,176 752,186 749,196 746,197 743,196 741,194 740,192 746,182 748,170 748,158 750,146"/>
<polygon class="pen1 brush22" points="788,203 796,196 802,187 806,177 810,168 815,168 814,181 810,192 803,203 794,213 783,223 772,232 761,240 752,248 749,247 749,242 749,236 749,232 754,227 759,223 764,219 769,216 774,213 779,210 784,207 788,203"/>
<polygon class="pen1 brush22" points="793,1229 807,1229 821,1228 834,1225 847,1223 859,1219 872,1216 884,1212 897,1208 903,1209 909,1209 915,1207 920,1205 925,1203 930,1203 935,1204 940,1208 939,1213 922,1216 904,1220 886,1224 867,1228 849,1232 830,1235 811,1238 792,1239 789,1237 788,1234 790,1230 793,1229"/>
<polygon class="pen1 brush22" points="820,590 841,593 861,591 880,585 897,577 912,569 923,562 930,557 932,556 932,563 926,571 919,577 914,581 901,590 889,597 879,601 870,603 861,604 852,604 843,604 833,603 829,600 824,598 821,595 820,590"/>
<polygon class="pen1 brush22" points="887,449 889,451 889,454 889,457 889,461 880,463 871,467 863,473 854,478 845,484 837,489 828,494 819,497 820,492 822,486 826,481 831,477 836,472 841,467 847,463 852,458 858,454 864,452 868,450 873,448 876,448 880,448 883,448 887,449"/>
<polygon class="pen1 brush22" points="844,654 851,656 850,675 844,692 838,708 833,725 821,725 826,707 833,690 839,672 844,654"/>
<polygon class="pen1 brush22" points="871,802 873,804 875,806 875,808 875,810 870,814 866,818 862,823 858,827 853,831 849,835 844,838 838,841 836,839 835,837 835,834 835,832 839,828 844,824 848,820 852,816 857,812 861,809 866,805 871,802"/>
<polygon class="pen1 brush22" points="873,340 871,337 866,334 860,331 855,328 850,325 847,321 847,317 850,312 854,314 859,317 865,319 872,321 878,323 883,326 888,330 891,335 890,346 887,355 882,364 875,372 867,379 858,386 848,392 838,398 828,398 830,392 835,386 843,379 852,371 860,363 868,356 872,348 873,340"/>
<polygon class="pen1 brush22" points="868,717 869,726 866,736 861,746 858,756 855,757 852,759 849,760 846,758 850,747 855,736 861,726 868,717"/>
<polygon class="pen1 brush22" points="876,152 879,152 881,152 882,154 884,155 884,164 881,173 875,182 868,191 861,200 853,209 847,217 842,224 848,206 852,199 856,192 861,186 866,180 870,174 874,168 876,160 876,152"/>
<polygon class="pen1 brush22" points="856,32 872,37 886,43 899,52 910,63 919,75 926,90 931,106 933,124 934,135 936,147 936,160 934,171 932,171 930,171 928,169 927,168 926,148 923,128 917,110 909,92 899,76 886,62 872,49 855,39 856,32"/>
<polygon class="pen1 brush22" points="880,1441 894,1439 907,1436 920,1434 934,1431 947,1428 960,1425 974,1421 987,1417 999,1413 1012,1408 1024,1403 1036,1398 1048,1391 1059,1385 1070,1377 1081,1369 1084,1369 1087,1368 1090,1368 1092,1370 1089,1376 1084,1380 1079,1384 1074,1388 1068,1391 1062,1395 1056,1398 1051,1402 1036,1407 1021,1412 1007,1418 992,1423 977,1428 962,1433 947,1437 931,1440 925,1441 919,1443 913,1445 906,1446 900,1448 893,1448 887,1449 880,1448 880,1441"/>
<polygon class="pen1 brush22" points="869,659 878,663 883,671 887,681 891,690 890,696 889,702 887,706 880,705 881,693 877,681 871,670 869,659"/>
<polygon class="pen1 brush22" points="906,1312 924,1314 944,1315 964,1314 984,1312 1004,1307 1023,1301 1040,1292 1055,1280 1070,1274 1084,1270 1098,1268 1113,1265 1128,1264 1143,1263 1159,1262 1176,1260 1177,1262 1178,1265 1177,1268 1177,1270 1155,1272 1134,1274 1113,1278 1092,1282 1073,1288 1054,1296 1036,1306 1019,1318 1006,1322 992,1325 977,1326 963,1326 948,1325 934,1324 919,1322 906,1320 906,1312"/>
<polygon class="pen1 brush22" points="907,174 915,179 920,188 923,199 926,208 927,225 930,240 934,256 937,270 936,271 934,272 931,272 928,272 922,248 918,224 913,200 903,178 907,174"/>
<polygon class="pen1 brush22" points="1029,965 1033,965 1035,968 1035,971 1035,974 1022,999 1010,1025 997,1054 984,1082 970,1110 956,1136 942,1160 926,1181 929,1146 944,1125 957,1104 970,1081 982,1058 993,1034 1005,1011 1016,988 1029,965"/>
<polygon class="pen1 brush22" points="933,595 941,593 949,590 957,587 965,585 973,583 982,582 990,581 998,582 998,591 989,590 981,591 973,593 965,596 957,599 949,601 941,602 933,602 933,595"/>
<polygon class="pen1 brush22" points="942,292 948,294 952,296 957,300 961,305 964,310 967,315 970,321 973,326 978,352 981,378 981,406 978,433 973,460 966,486 957,511 946,534 943,534 940,533 938,531 936,528 948,501 957,472 962,442 965,411 964,380 960,349 953,319 942,292"/>
<polygon class="pen1 brush22" points="975,1486 991,1484 1006,1482 1021,1478 1035,1473 1049,1468 1063,1462 1076,1455 1089,1447 1092,1445 1096,1444 1100,1442 1104,1441 1108,1439 1112,1437 1115,1435 1119,1433 1125,1428 1131,1424 1137,1420 1144,1417 1150,1413 1157,1410 1164,1406 1170,1402 1172,1404 1172,1406 1172,1409 1172,1411 1160,1417 1149,1424 1137,1431 1126,1438 1114,1445 1103,1451 1091,1458 1079,1464 1067,1470 1055,1475 1043,1480 1031,1485 1018,1488 1005,1491 992,1494 979,1495 977,1493 975,1491 975,1488 975,1486"/>
<polygon class="pen1 brush22" points="973,225 976,224 979,225 980,227 982,228 981,232 977,235 973,239 967,243 961,246 956,249 951,252 947,255 943,251 942,247 945,243 951,238 957,234 963,230 969,227 973,225"/>
<polygon class="pen1 brush22" points="1007,1203 1011,1205 1016,1206 1021,1206 1026,1207 1031,1208 1035,1209 1038,1212 1041,1216 1037,1221 1034,1220 1029,1217 1024,1215 1018,1215 1012,1214 1006,1213 999,1212 993,1211 988,1209 982,1207 977,1205 979,1201 982,1200 986,1199 990,1199 994,1200 999,1202 1003,1203 1007,1203"/>
<polygon class="pen1 brush22" points="985,250 988,253 989,256 989,259 988,262 984,264 979,267 974,271 969,275 964,278 959,281 954,282 950,282 951,277 954,272 959,268 965,264 970,261 976,257 981,254 985,250"/>
<polygon class="pen1 brush22" points="1030,271 1032,272 1032,274 1032,276 1032,278 1025,282 1019,286 1013,291 1007,295 1001,300 996,305 990,311 984,316 981,314 981,312 980,309 980,306 986,301 992,296 998,291 1004,286 1011,281 1017,277 1024,274 1030,271"/>
<polygon class="pen1 brush22" points="1008,1058 1015,1065 1016,1075 1016,1087 1018,1098 1024,1107 1030,1115 1036,1123 1043,1130 1050,1137 1057,1144 1065,1152 1072,1159 1072,1163 1071,1165 1069,1167 1066,1168 1048,1158 1034,1147 1023,1135 1015,1122 1010,1108 1007,1093 1004,1078 1003,1061 1008,1058"/>
<polygon class="pen1 brush22" points="994,384 1003,388 1011,395 1018,403 1023,411 1021,414 1018,415 1015,415 1012,414 1009,406 1002,399 995,393 994,384"/>
<polygon class="pen1 brush22" points="1026,324 1027,331 1023,337 1017,342 1012,349 1005,349 1006,340 1011,333 1019,328 1026,324"/>
<polygon class="pen1 brush22" points="1014,163 1018,163 1018,187 1018,213 1017,239 1015,262 1012,261 1009,258 1006,255 1004,252 1005,229 1005,206 1007,184 1014,163"/>
<polygon class="pen1 brush22" points="1034,419 1041,419 1039,429 1035,438 1030,448 1026,457 1021,474 1019,491 1020,508 1022,526 1025,543 1030,559 1035,575 1040,590 1032,586 1028,579 1025,570 1021,562 1015,544 1012,526 1010,507 1010,488 1013,469 1017,451 1024,434 1034,419"/>
<polygon class="pen1 brush22" points="1045,97 1053,97 1055,109 1059,125 1063,140 1062,150 1053,141 1052,137 1051,131 1048,126 1046,123 1043,127 1040,131 1036,136 1032,141 1028,145 1023,147 1018,149 1013,148 1018,142 1023,136 1028,130 1032,124 1035,118 1039,111 1042,104 1045,97"/>
<polygon class="pen1 brush22" points="1038,604 1042,605 1044,608 1046,612 1047,615 1053,622 1061,627 1069,632 1072,639 1066,639 1060,637 1055,635 1050,631 1045,627 1041,622 1037,617 1034,612 1034,610 1035,608 1036,606 1038,604"/>
<polygon class="pen1 brush22" points="1035,336 1042,339 1047,343 1052,349 1058,355 1055,366 1052,378 1050,389 1046,400 1040,401 1040,393 1041,385 1044,377 1047,368 1048,360 1047,353 1043,346 1033,340 1033,339 1033,338 1034,337 1035,336"/>
<polygon class="pen1 brush22" points="1099,1326 1105,1325 1111,1323 1117,1323 1122,1326 1120,1332 1114,1333 1106,1333 1100,1335 1096,1337 1091,1339 1087,1341 1082,1343 1077,1344 1072,1345 1067,1345 1062,1345 1064,1340 1068,1337 1072,1335 1078,1333 1083,1331 1088,1330 1094,1328 1099,1326"/>
<polygon class="pen1 brush22" points="1064,1202 1083,1203 1101,1206 1118,1209 1136,1214 1153,1218 1170,1223 1186,1228 1203,1232 1203,1240 1194,1240 1186,1238 1177,1235 1169,1232 1161,1229 1152,1226 1143,1224 1134,1224 1125,1221 1116,1219 1107,1217 1097,1216 1087,1215 1078,1213 1069,1212 1060,1209 1059,1206 1061,1204 1063,1203 1064,1202"/>
<polygon class="pen1 brush22" points="1098,1534 1118,1530 1136,1523 1153,1514 1168,1504 1183,1493 1199,1482 1215,1472 1233,1463 1236,1460 1240,1457 1244,1454 1248,1451 1251,1449 1255,1447 1259,1447 1263,1447 1260,1453 1256,1457 1251,1461 1246,1465 1240,1468 1234,1472 1229,1475 1224,1479 1206,1490 1188,1502 1171,1513 1153,1523 1134,1532 1115,1540 1094,1545 1073,1549 1076,1542 1083,1539 1091,1537 1098,1534"/>
<polygon class="pen1 brush22" points="1052,160 1057,160 1059,163 1060,167 1062,171 1059,238 1050,238 1051,218 1053,199 1053,179 1052,160"/>
<polygon class="pen1 brush22" points="1060,678 1063,676 1065,676 1067,676 1070,678 1075,747 1072,863 1074,865 1075,867 1074,870 1074,872 1072,874 1068,877 1064,878 1061,879 1059,830 1063,779 1066,728 1060,678"/>
<polygon class="pen1 brush22" points="1069,909 1074,909 1079,940 1084,972 1089,1003 1095,1033 1102,1063 1112,1092 1125,1120 1142,1146 1140,1148 1138,1149 1136,1150 1133,1150 1125,1140 1117,1130 1110,1120 1104,1110 1098,1099 1092,1088 1088,1077 1084,1065 1065,924 1065,920 1065,915 1066,911 1069,909"/>
<polygon class="pen1 brush22" points="1066,246 1076,242 1085,243 1093,248 1100,254 1107,262 1113,270 1120,277 1127,282 1134,290 1140,297 1146,304 1150,310 1154,316 1158,322 1161,329 1165,337 1163,339 1161,340 1159,340 1156,340 1148,329 1140,318 1132,307 1123,296 1114,285 1105,274 1095,263 1084,252 1056,262 1055,257 1058,252 1062,249 1066,246"/>
<polygon class="pen1 brush22" points="1092,1181 1098,1183 1103,1186 1109,1189 1114,1191 1120,1194 1125,1197 1131,1199 1137,1201 1138,1203 1137,1204 1135,1206 1134,1208 1128,1207 1121,1205 1114,1203 1108,1201 1102,1198 1097,1194 1092,1190 1088,1184 1092,1181"/>
<polygon class="pen1 brush22" points="1132,1356 1135,1358 1137,1359 1139,1360 1141,1360 1142,1363 1141,1366 1139,1368 1137,1369 1131,1366 1124,1366 1120,1364 1122,1357 1132,1356"/>
<polygon class="pen1 brush22" points="1152,378 1155,378 1158,378 1160,379 1162,381 1157,411 1152,440 1148,470 1150,501 1147,503 1144,504 1141,504 1138,502 1138,470 1142,439 1148,409 1152,378"/>
<polygon class="pen1 brush22" points="1152,537 1161,543 1164,554 1166,568 1170,580 1176,596 1180,613 1185,630 1188,647 1192,664 1195,681 1199,698 1203,715 1197,716 1195,712 1193,705 1190,700 1185,680 1181,659 1176,639 1171,619 1166,599 1161,578 1156,558 1152,537"/>
<polygon class="pen1 brush22" points="1186,1340 1205,1349 1223,1359 1240,1369 1257,1380 1275,1390 1292,1400 1310,1409 1328,1416 1338,1419 1349,1423 1358,1427 1368,1431 1378,1436 1388,1441 1398,1446 1408,1450 1425,1456 1443,1462 1463,1468 1484,1475 1505,1481 1526,1486 1546,1490 1564,1492 1552,1498 1541,1498 1530,1497 1521,1496 1513,1495 1506,1494 1499,1493 1493,1493 1488,1492 1476,1489 1465,1485 1453,1480 1442,1476 1431,1471 1420,1466 1409,1461 1399,1455 1388,1450 1377,1445 1366,1440 1355,1435 1344,1430 1332,1426 1321,1422 1309,1418 1300,1414 1290,1409 1280,1404 1269,1399 1258,1393 1247,1387 1235,1381 1224,1374 1212,1368 1201,1362 1190,1356 1179,1350 1169,1345 1159,1340 1149,1336 1140,1332 1141,1330 1146,1329 1152,1331 1160,1333 1169,1336 1176,1339 1183,1340 1186,1340"/>
<polygon class="pen1 brush22" points="1185,1586 1205,1578 1225,1568 1244,1557 1263,1546 1281,1535 1300,1523 1319,1511 1338,1499 1342,1496 1346,1490 1351,1487 1356,1490 1354,1496 1350,1502 1345,1507 1340,1511 1333,1515 1327,1518 1320,1521 1314,1524 1300,1534 1285,1543 1270,1552 1256,1561 1240,1569 1225,1578 1210,1586 1194,1595 1189,1595 1186,1594 1185,1591 1185,1586"/>
<polygon class="pen1 brush22" points="1200,1392 1205,1392 1209,1394 1213,1395 1217,1397 1221,1400 1225,1403 1228,1405 1231,1408 1227,1410 1223,1411 1219,1410 1215,1409 1211,1408 1207,1406 1203,1405 1200,1405 1200,1392"/>
<polygon class="pen1 brush22" points="1215,761 1222,764 1228,772 1231,781 1234,791 1244,814 1253,839 1262,866 1271,895 1277,926 1282,958 1284,992 1283,1026 1281,1044 1278,1062 1274,1080 1269,1098 1263,1116 1256,1134 1248,1152 1239,1170 1238,1166 1238,1157 1238,1147 1237,1140 1256,1090 1266,1040 1269,990 1265,941 1257,894 1245,850 1230,809 1215,773 1215,761"/>
<polygon class="pen1 brush22" points="1204,1193 1214,1189 1226,1185 1240,1181 1254,1176 1269,1172 1285,1167 1300,1162 1316,1157 1330,1152 1344,1148 1357,1144 1368,1140 1377,1137 1383,1134 1388,1132 1389,1131 1390,1134 1388,1138 1383,1142 1376,1146 1366,1151 1353,1157 1340,1162 1324,1168 1308,1174 1290,1180 1273,1186 1255,1192 1237,1198 1219,1203 1202,1209 1186,1214 1186,1207 1191,1201 1198,1196 1204,1193"/>
<polygon class="pen1 brush22" points="1314,1656 1332,1645 1350,1635 1368,1626 1387,1617 1405,1608 1423,1599 1441,1590 1459,1579 1467,1577 1476,1573 1485,1570 1494,1566 1503,1563 1513,1560 1521,1558 1530,1557 1529,1566 1524,1568 1516,1570 1510,1573 1492,1582 1475,1590 1458,1598 1441,1606 1425,1615 1409,1624 1392,1633 1375,1643 1363,1648 1350,1655 1335,1662 1320,1669 1304,1677 1289,1683 1275,1687 1262,1690 1264,1685 1269,1679 1276,1674 1284,1669 1293,1665 1301,1661 1309,1658 1314,1656"/>
<polygon class="pen1 brush22" points="1287,1435 1295,1440 1304,1444 1312,1449 1316,1458 1312,1457 1306,1456 1300,1455 1295,1452 1290,1450 1286,1446 1285,1441 1287,1435"/>
<polygon class="pen1 brush22" points="1318,1582 1333,1577 1348,1571 1361,1563 1374,1555 1386,1546 1399,1537 1412,1528 1425,1519 1425,1530 1410,1542 1395,1554 1380,1564 1364,1573 1347,1581 1331,1589 1314,1597 1297,1604 1291,1600 1290,1596 1293,1594 1297,1592 1303,1591 1310,1589 1315,1586 1318,1582"/>
<polygon class="pen1 brush22" points="1387,1480 1418,1494 1417,1500 1412,1501 1407,1500 1403,1498 1399,1496 1394,1493 1389,1491 1383,1489 1380,1487 1378,1485 1381,1482 1387,1480"/>
<polygon class="pen1 brush22" points="1568,1516 1572,1516 1576,1516 1579,1518 1580,1522 1575,1523 1570,1526 1566,1530 1562,1535 1557,1540 1553,1544 1548,1546 1543,1547 1545,1538 1551,1529 1560,1521 1568,1516"/>
<polygon class="pen1 brush22" points="784,318 784,316 780,315 775,313 770,311 764,309 756,309 748,312 743,317 737,324 733,331 732,338 734,344 737,341 741,338 746,334 753,329 760,325 768,322 776,319 784,318"/>
<polygon class="pen1 brush22" points="907,279 908,277 905,275 900,272 896,269 892,266 884,264 877,264 871,267 863,272 858,278 855,284 856,289 859,288 863,285 869,283 876,281 884,279 892,278 900,278 907,279"/>
</g>
</svg>